<svg xmlns="http://www.w3.org/2000/svg" width="711" height="358"><path d="M.96 18.24h7.68v-1.136H.96Zm9.264 14.584v-1.248h-4.8V21H4.176v22.4h1.248V32.824Z"/><path d="M10.224 53.824v-1.248h-4.8V42H4.176v22.4h1.248V53.824Z"/><path d="M10.224 74.824v-1.248h-4.8V63H4.176v22.4h1.248V74.824Z"/><path d="M4.176 106.4h1.248V84H4.176Z"/><path d="M10.224 116.824v-1.248h-4.8V105H4.176v22.4h1.248v-10.576Z"/><path d="M4.176 148.4h1.248V126H4.176Z"/><path d="M10.224 158.824v-1.248h-4.8V147H4.176v22.4h1.248v-10.576Z"/><path d="M4.176 190.4h1.248V168H4.176Z"/><path d="M10.224 200.824v-1.248h-4.8V189H4.176v22.4h1.248v-10.576Z"/><path d="M4.176 232.4h1.248V210H4.176Z"/><path d="M10.224 242.824v-1.248h-4.8V231H4.176v22.4h1.248v-10.576Z"/><path d="M4.176 274.4h1.248V252H4.176Z"/><path d="M4.176 295.4h1.248V273H4.176Z"/><path d="M4.176 316.4h1.248V294H4.176Z"/><path d="M10.224 326.824v-1.248h-4.8V315H4.176v11.824Zm40 21v-1.248h-4.8V336h-1.248v11.824Z"/><path d="M49.376 347.824h10.848v-1.248H49.376Z"/><path d="M59.376 347.824h10.848v-1.248H59.376ZM85.056 352h1.312v-7.776H81.44v1.072h3.616Zm.512-9.408c.592 0 1.056-.4 1.056-1.024 0-.608-.464-1.024-1.056-1.024s-1.056.416-1.056 1.024c0 .624.464 1.024 1.056 1.024m5.92 9.408H92.8v-5.424c.912-.944 1.536-1.408 2.464-1.408 1.28 0 1.792.704 1.792 2.176V352h1.312v-4.832c0-2.048-.848-3.136-2.688-3.136-1.216 0-2.112.656-2.928 1.52h-.064l-.112-1.328h-1.088Zm12.848.192c.96 0 1.888-.56 2.528-1.216h.048l.112 1.024h1.088v-11.392H106.8v2.992l.064 1.44h-.048c-.672-.64-1.392-1.008-2.32-1.008-1.84 0-3.536 1.568-3.536 4.096 0 2.592 1.344 4.064 3.376 4.064m.272-1.104c-1.44 0-2.288-1.12-2.288-2.976 0-1.776 1.088-2.976 2.432-2.976.672 0 1.344.256 2.048.912v3.872c-.688.768-1.424 1.168-2.192 1.168m10.48-6.016c1.328 0 2.208.784 2.32 2.384h-4.96c.24-1.536 1.36-2.384 2.64-2.384m.192 7.12c1.248 0 2.24-.416 3.008-.928l-.48-.864c-.704.448-1.44.736-2.368.736-1.616 0-2.864-.896-3.024-2.656h6.128c.032-.208.064-.496.064-.8 0-2.192-1.312-3.648-3.552-3.648-2.08 0-3.968 1.536-3.968 4.064 0 2.592 1.856 4.096 4.192 4.096m5.744-.192h1.408l1.28-1.792c.32-.496.64-.944.96-1.408h.064c.336.448.704.96 1.024 1.408l1.36 1.792h1.44l-2.976-3.92 2.768-3.856h-1.392l-1.168 1.68c-.272.432-.592.912-.88 1.344h-.064a28 28 0 0 1-.912-1.312l-1.232-1.712h-1.456l2.736 3.744Zm13.776.192c.72 0 1.296-.544 1.296-1.344 0-.816-.576-1.36-1.296-1.36s-1.296.544-1.296 1.36c0 .8.576 1.344 1.296 1.344m6.688-.192h1.312v-5.424c.912-.944 1.536-1.408 2.464-1.408 1.28 0 1.792.704 1.792 2.176V352h1.312v-4.832c0-2.048-.848-3.136-2.688-3.136-1.216 0-2.112.656-2.912 1.52h-.048l.08-1.84v-3.104h-1.312Zm14.816.192c.976 0 1.728-.208 2.432-.464l-.288-.96a5.1 5.1 0 0 1-1.872.352c-1.504 0-1.968-.736-1.968-2.128v-3.696h3.824v-1.072h-3.824v-2.496h-1.088l-.176 2.496-2.24.08v.992h2.192v3.68c0 1.92.736 3.216 3.008 3.216m4.624-.192h1.312v-5.632c.384-.8.736-1.2 1.28-1.2.576 0 .8.464.8 1.36V352h1.216v-5.632c.416-.8.704-1.2 1.248-1.2.576 0 .832.464.832 1.36V352h1.312v-5.568c0-1.552-.64-2.4-1.728-2.4-.896 0-1.376.512-1.824 1.344-.224-.896-.704-1.344-1.472-1.344-.896 0-1.376.496-1.776 1.216h-.032l-.112-1.024h-1.056Zm15.584.192c.848 0 1.36-.16 2.08-.464l-.336-.976c-.528.24-1.008.352-1.456.352-.928 0-1.536-.48-1.536-1.616v-8.88h-4.08v1.072h2.768v7.712c0 1.84.912 2.8 2.56 2.8m57.136-4.368.288-2.368h2.112l-.288 2.368ZM232.272 352h.864l.4-3.264h2.112l-.4 3.264h.864l.4-3.264h1.472v-.912h-1.36l.288-2.368h1.392v-.928h-1.28l.352-2.928h-.848l-.368 2.928h-2.112l.352-2.928h-.848l-.368 2.928h-1.472v.928h1.36l-.288 2.368h-1.392v.912h1.28Zm22.784 0h1.312v-7.776h-4.928v1.072h3.616Zm.512-9.408c.592 0 1.056-.4 1.056-1.024 0-.608-.464-1.024-1.056-1.024s-1.056.416-1.056 1.024c0 .624.464 1.024 1.056 1.024m5.92 9.408h1.312v-5.424c.912-.944 1.536-1.408 2.464-1.408 1.28 0 1.792.704 1.792 2.176V352h1.312v-4.832c0-2.048-.848-3.136-2.688-3.136-1.216 0-2.112.656-2.928 1.52h-.064l-.112-1.328h-1.088Zm12.848.192c.96 0 1.888-.56 2.528-1.216h.048l.112 1.024h1.088v-11.392H276.8v2.992l.064 1.44h-.048c-.672-.64-1.392-1.008-2.32-1.008-1.84 0-3.536 1.568-3.536 4.096 0 2.592 1.344 4.064 3.376 4.064m.272-1.104c-1.44 0-2.288-1.12-2.288-2.976 0-1.776 1.088-2.976 2.432-2.976.672 0 1.344.256 2.048.912v3.872c-.688.768-1.424 1.168-2.192 1.168m10.448.912h1.312v-7.776h-4.928v1.072h3.616Zm.512-9.408c.592 0 1.056-.4 1.056-1.024 0-.608-.464-1.024-1.056-1.024s-1.056.416-1.056 1.024c0 .624.464 1.024 1.056 1.024m8.528 9.408h1.472l3.216-7.776h-1.264l-1.792 4.416c-.32.784-.576 1.552-.848 2.288h-.064a73 73 0 0 0-.88-2.288l-1.792-4.416h-1.328Zm10.96 0h1.312v-7.776h-4.928v1.072h3.616Zm.512-9.408c.592 0 1.056-.4 1.056-1.024 0-.608-.464-1.024-1.056-1.024s-1.056.416-1.056 1.024c0 .624.464 1.024 1.056 1.024m8.768 9.6c.96 0 1.888-.56 2.528-1.216h.048l.112 1.024h1.088v-11.392H316.8v2.992l.064 1.44h-.048c-.672-.64-1.392-1.008-2.32-1.008-1.84 0-3.536 1.568-3.536 4.096 0 2.592 1.344 4.064 3.376 4.064m.272-1.104c-1.44 0-2.288-1.12-2.288-2.976 0-1.776 1.088-2.976 2.432-2.976.672 0 1.344.256 2.048.912v3.872c-.688.768-1.424 1.168-2.192 1.168m9.328 1.104c1.2 0 2.112-.64 2.896-1.552h.064l.112 1.36h1.072v-7.776h-1.312v5.392c-.864 1.008-1.52 1.44-2.416 1.44-1.296 0-1.792-.704-1.792-2.176v-4.656h-1.328v4.832c0 2.048.848 3.136 2.704 3.136m10 0c1.104 0 2.208-.576 3.072-1.248h.048l.112 1.056h1.072v-4.768c0-1.936-1.024-3.2-3.152-3.2-1.36 0-2.672.608-3.456 1.12l.512.896c.72-.448 1.712-.928 2.72-.928 1.504 0 2.032.896 2.064 1.952-4.016.32-5.632 1.168-5.632 2.912 0 1.392 1.184 2.208 2.64 2.208m.352-1.056c-.896 0-1.712-.368-1.712-1.248 0-1.024 1.024-1.68 4.352-1.952v2.048c-.88.736-1.76 1.152-2.64 1.152m12.224 1.056c.848 0 1.36-.16 2.08-.464l-.336-.976c-.528.24-1.008.352-1.456.352-.928 0-1.536-.48-1.536-1.616v-8.88h-4.08v1.072h2.768v7.712c0 1.84.912 2.8 2.56 2.8m14.976 3.088h1.312v-2.624l-.064-1.472h.048c.688.64 1.6 1.008 2.32 1.008 1.872 0 3.536-1.552 3.536-4.192 0-2.416-1.12-3.968-3.216-3.968-.96 0-1.968.496-2.688 1.184h-.048l-.112-.992h-1.088Zm3.392-4.192c-.528 0-1.344-.256-2.08-.912v-3.872c.8-.8 1.6-1.168 2.288-1.168 1.552 0 2.192 1.152 2.192 2.864 0 1.92-1.008 3.088-2.4 3.088m9.92 1.104c2.048 0 3.84-1.488 3.84-4.064 0-2.608-1.792-4.096-3.84-4.096s-3.84 1.488-3.84 4.096c0 2.576 1.792 4.064 3.84 4.064m0-1.088c-1.488 0-2.48-1.2-2.48-2.976 0-1.792.992-3.008 2.48-3.008s2.48 1.216 2.48 3.008c0 1.776-.992 2.976-2.48 2.976m10.16 1.088c2.224 0 3.456-1.056 3.456-2.32 0-1.184-.624-1.84-3.216-2.4-1.584-.336-2.256-.624-2.256-1.296 0-.592.464-1.12 1.792-1.12.992 0 1.888.32 2.608.816l.64-.848c-.768-.528-1.952-.992-3.136-.992-2.128 0-3.232.96-3.232 2.208 0 1.168 1.024 1.856 3.04 2.272 2.112.432 2.432.848 2.432 1.44 0 .656-.656 1.216-1.968 1.216-1.44 0-2.48-.416-3.376-1.056l-.608.864c.944.656 2.304 1.216 3.824 1.216m11.344 0c.976 0 1.728-.208 2.432-.464l-.288-.96a5.1 5.1 0 0 1-1.872.352c-1.504 0-1.968-.736-1.968-2.128v-3.696h3.824v-1.072h-3.824v-2.496h-1.088l-.176 2.496-2.24.08v.992h2.192v3.68c0 1.92.736 3.216 3.008 3.216M9.376 326.824h10.848v-1.248H9.376Z"/><path d="M19.376 326.824h10.848v-1.248H19.376Zm28.512 3.408v-1.264l-4.816-3.248v-.064l4.816-3.248v-1.264l-5.968 4.048v.992Zm3.6 4.048H52.8v-2.624l-.064-1.472h.048c.688.64 1.6 1.008 2.32 1.008 1.872 0 3.536-1.552 3.536-4.192 0-2.416-1.12-3.968-3.216-3.968-.96 0-1.968.496-2.688 1.184h-.048l-.112-.992h-1.088Zm3.392-4.192c-.528 0-1.344-.256-2.08-.912v-3.872c.8-.8 1.6-1.168 2.288-1.168 1.552 0 2.192 1.152 2.192 2.864 0 1.92-1.008 3.088-2.4 3.088m9.92 1.104c2.048 0 3.84-1.488 3.84-4.064 0-2.608-1.792-4.096-3.84-4.096s-3.84 1.488-3.84 4.096c0 2.576 1.792 4.064 3.84 4.064m0-1.088c-1.488 0-2.48-1.2-2.48-2.976 0-1.792.992-3.008 2.48-3.008s2.48 1.216 2.48 3.008c0 1.776-.992 2.976-2.48 2.976m10.16 1.088c2.224 0 3.456-1.056 3.456-2.32 0-1.184-.624-1.84-3.216-2.4-1.584-.336-2.256-.624-2.256-1.296 0-.592.464-1.12 1.792-1.12.992 0 1.888.32 2.608.816l.64-.848c-.768-.528-1.952-.992-3.136-.992-2.128 0-3.232.96-3.232 2.208 0 1.168 1.024 1.856 3.04 2.272 2.112.432 2.432.848 2.432 1.44 0 .656-.656 1.216-1.968 1.216-1.44 0-2.48-.416-3.376-1.056l-.608.864c.944.656 2.304 1.216 3.824 1.216m11.344 0c.976 0 1.728-.208 2.432-.464l-.288-.96a5.1 5.1 0 0 1-1.872.352c-1.504 0-1.968-.736-1.968-2.128v-3.696h3.824v-1.072h-3.824v-2.496H83.52l-.176 2.496-2.24.08v.992h2.192v3.68c0 1.92.736 3.216 3.008 3.216m5.056-4.976h6.88v-.992h-6.88Zm13.6 4.976c2.224 0 3.456-1.056 3.456-2.32 0-1.184-.624-1.84-3.216-2.4-1.584-.336-2.256-.624-2.256-1.296 0-.592.464-1.12 1.792-1.12.992 0 1.888.32 2.608.816l.64-.848c-.768-.528-1.952-.992-3.136-.992-2.128 0-3.232.96-3.232 2.208 0 1.168 1.024 1.856 3.04 2.272 2.112.432 2.432.848 2.432 1.44 0 .656-.656 1.216-1.968 1.216-1.44 0-2.48-.416-3.376-1.056l-.608.864c.944.656 2.304 1.216 3.824 1.216m11.552 0c.848 0 1.36-.16 2.08-.464l-.336-.976c-.528.24-1.008.352-1.456.352-.928 0-1.536-.48-1.536-1.616v-8.88h-4.08v1.072h2.768v7.712c0 1.84.912 2.8 2.56 2.8m7.424 0c1.2 0 2.112-.64 2.896-1.552h.064l.112 1.36h1.072v-7.776h-1.312v5.392c-.864 1.008-1.52 1.44-2.416 1.44-1.296 0-1.792-.704-1.792-2.176v-4.656h-1.328v4.832c0 2.048.848 3.136 2.704 3.136m10.8 3.392c2.64 0 4.32-1.264 4.32-2.72 0-1.312-.96-1.824-2.96-1.824h-1.744c-1.024 0-1.616-.288-1.616-.896 0-.368.224-.656.608-.896.432.192.912.288 1.312.288 1.68 0 3.008-1.008 3.008-2.672 0-.624-.304-1.2-.656-1.568h2.016v-1.072h-3.216a3.2 3.2 0 0 0-1.152-.192c-1.648 0-3.056 1.088-3.056 2.784 0 .928.432 1.616.96 2.016v.064c-.592.4-.928.96-.928 1.456 0 .656.384 1.056.8 1.28v.064c-.832.48-1.28 1.104-1.28 1.728 0 1.376 1.312 2.16 3.584 2.16m-.08-6.928c-.976 0-1.792-.72-1.792-1.84 0-1.088.816-1.824 1.792-1.824.992 0 1.792.736 1.792 1.824 0 1.12-.8 1.84-1.792 1.84m.176 5.968c-1.664 0-2.544-.512-2.544-1.328 0-.448.256-.896.992-1.296.336.096.736.128 1.184.128h1.52c1.184 0 1.776.208 1.776.944 0 .8-1.12 1.552-2.928 1.552m6.88-3.392 5.968-4.048v-.992l-5.968-4.048v1.264l4.816 3.248v.064l-4.816 3.248Zm9.872 3.328h1.184l5.248-13.92h-1.184Zm-101.36-69.736v-1.248h-4.8V252h-1.248v22.4h1.248v-10.576Z"/><path d="M44.176 295.4h1.248V273h-1.248Z"/><path d="M50.224 305.824v-1.248h-4.8V294h-1.248v11.824Z"/><path d="M49.376 305.824h10.848v-1.248H49.376Z"/><path d="M59.376 305.824h10.848v-1.248H59.376Zm25.424 4.368c.72 0 1.296-.544 1.296-1.344 0-.816-.576-1.36-1.296-1.36s-1.296.544-1.296 1.36c0 .8.576 1.344 1.296 1.344m10 0c.72 0 1.296-.544 1.296-1.344 0-.816-.576-1.36-1.296-1.36s-1.296.544-1.296 1.36c0 .8.576 1.344 1.296 1.344m10 0c.72 0 1.296-.544 1.296-1.344 0-.816-.576-1.36-1.296-1.36s-1.296.544-1.296 1.36c0 .8.576 1.344 1.296 1.344m-14.576-25.368v-1.248h-4.8V273h-1.248v11.824Z"/><path d="M89.376 284.824h10.848v-1.248H89.376Z"/><path d="M99.376 284.824h10.848v-1.248H99.376Zm25.68 4.176h1.312v-7.776h-4.928v1.072h3.616Zm.512-9.408c.592 0 1.056-.4 1.056-1.024 0-.608-.464-1.024-1.056-1.024s-1.056.416-1.056 1.024c0 .624.464 1.024 1.056 1.024m5.92 9.408h1.312v-5.424c.912-.944 1.536-1.408 2.464-1.408 1.28 0 1.792.704 1.792 2.176V289h1.312v-4.832c0-2.048-.848-3.136-2.688-3.136-1.216 0-2.112.656-2.928 1.52h-.064l-.112-1.328h-1.088Zm12.848.192c.96 0 1.888-.56 2.528-1.216h.048l.112 1.024h1.088v-11.392H146.8v2.992l.064 1.44h-.048c-.672-.64-1.392-1.008-2.32-1.008-1.84 0-3.536 1.568-3.536 4.096 0 2.592 1.344 4.064 3.376 4.064m.272-1.104c-1.44 0-2.288-1.12-2.288-2.976 0-1.776 1.088-2.976 2.432-2.976.672 0 1.344.256 2.048.912v3.872c-.688.768-1.424 1.168-2.192 1.168m10.48-6.016c1.328 0 2.208.784 2.32 2.384h-4.96c.24-1.536 1.36-2.384 2.64-2.384m.192 7.12c1.248 0 2.24-.416 3.008-.928l-.48-.864c-.704.448-1.44.736-2.368.736-1.616 0-2.864-.896-3.024-2.656h6.128c.032-.208.064-.496.064-.8 0-2.192-1.312-3.648-3.552-3.648-2.08 0-3.968 1.536-3.968 4.064 0 2.592 1.856 4.096 4.192 4.096m5.744-.192h1.408l1.28-1.792c.32-.496.64-.944.96-1.408h.064c.336.448.704.96 1.024 1.408l1.36 1.792h1.44l-2.976-3.92 2.768-3.856h-1.392l-1.168 1.68c-.272.432-.592.912-.88 1.344h-.064a28 28 0 0 1-.912-1.312l-1.232-1.712h-1.456l2.736 3.744Zm13.776.192c.72 0 1.296-.544 1.296-1.344 0-.816-.576-1.36-1.296-1.36s-1.296.544-1.296 1.36c0 .8.576 1.344 1.296 1.344m6.688-.192h1.312v-5.424c.912-.944 1.536-1.408 2.464-1.408 1.28 0 1.792.704 1.792 2.176V289h1.312v-4.832c0-2.048-.848-3.136-2.688-3.136-1.216 0-2.112.656-2.912 1.52h-.048l.08-1.84v-3.104h-1.312Zm14.816.192c.976 0 1.728-.208 2.432-.464l-.288-.96a5.1 5.1 0 0 1-1.872.352c-1.504 0-1.968-.736-1.968-2.128v-3.696h3.824v-1.072h-3.824v-2.496h-1.088l-.176 2.496-2.24.08v.992h2.192v3.68c0 1.92.736 3.216 3.008 3.216m4.624-.192h1.312v-5.632c.384-.8.736-1.2 1.28-1.2.576 0 .8.464.8 1.36V289h1.216v-5.632c.416-.8.704-1.2 1.248-1.2.576 0 .832.464.832 1.36V289h1.312v-5.568c0-1.552-.64-2.4-1.728-2.4-.896 0-1.376.512-1.824 1.344-.224-.896-.704-1.344-1.472-1.344-.896 0-1.376.496-1.776 1.216h-.032l-.112-1.024h-1.056Zm15.584.192c.848 0 1.36-.16 2.08-.464l-.336-.976c-.528.24-1.008.352-1.456.352-.928 0-1.536-.48-1.536-1.616v-8.88h-4.08v1.072h2.768v7.712c0 1.84.912 2.8 2.56 2.8m17.136-4.368.288-2.368h2.112l-.288 2.368ZM232.272 289h.864l.4-3.264h2.112l-.4 3.264h.864l.4-3.264h1.472v-.912h-1.36l.288-2.368h1.392v-.928h-1.28l.352-2.928h-.848l-.368 2.928h-2.112l.352-2.928h-.848l-.368 2.928h-1.472v.928h1.36l-.288 2.368h-1.392v.912h1.28Zm19.216 3.28h1.312v-2.624l-.064-1.472h.048c.688.64 1.6 1.008 2.32 1.008 1.872 0 3.536-1.552 3.536-4.192 0-2.416-1.12-3.968-3.216-3.968-.96 0-1.968.496-2.688 1.184h-.048l-.112-.992h-1.088Zm3.392-4.192c-.528 0-1.344-.256-2.08-.912v-3.872c.8-.8 1.6-1.168 2.288-1.168 1.552 0 2.192 1.152 2.192 2.864 0 1.92-1.008 3.088-2.4 3.088m10.208-6.016c1.328 0 2.208.784 2.32 2.384h-4.96c.24-1.536 1.36-2.384 2.64-2.384m.192 7.12c1.248 0 2.24-.416 3.008-.928l-.48-.864c-.704.448-1.44.736-2.368.736-1.616 0-2.864-.896-3.024-2.656h6.128c.032-.208.064-.496.064-.8 0-2.192-1.312-3.648-3.552-3.648-2.08 0-3.968 1.536-3.968 4.064 0 2.592 1.856 4.096 4.192 4.096m7.056-.192h1.312v-4.56c.928-1.616 2.032-2.224 3.2-2.224.608 0 .896.08 1.44.272l.304-1.136c-.48-.24-.96-.32-1.536-.32-1.44 0-2.656.784-3.472 2.032h-.048l-.112-1.84h-1.088Zm9.024-4.784h6.88v-.992h-6.88Zm14.944 4.976c.976 0 1.728-.208 2.432-.464l-.288-.96a5.1 5.1 0 0 1-1.872.352c-1.504 0-1.968-.736-1.968-2.128v-3.696h3.824v-1.072h-3.824v-2.496h-1.088l-.176 2.496-2.24.08v.992h2.192v3.68c0 1.92.736 3.216 3.008 3.216m7.632 0c1.104 0 2.208-.576 3.072-1.248h.048l.112 1.056h1.072v-4.768c0-1.936-1.024-3.2-3.152-3.2-1.36 0-2.672.608-3.456 1.12l.512.896c.72-.448 1.712-.928 2.72-.928 1.504 0 2.032.896 2.064 1.952-4.016.32-5.632 1.168-5.632 2.912 0 1.392 1.184 2.208 2.64 2.208m.352-1.056c-.896 0-1.712-.368-1.712-1.248 0-1.024 1.024-1.68 4.352-1.952v2.048c-.88.736-1.76 1.152-2.64 1.152m10.448 4.448c2.64 0 4.32-1.264 4.32-2.72 0-1.312-.96-1.824-2.96-1.824h-1.744c-1.024 0-1.616-.288-1.616-.896 0-.368.224-.656.608-.896.432.192.912.288 1.312.288 1.68 0 3.008-1.008 3.008-2.672 0-.624-.304-1.2-.656-1.568h2.016v-1.072h-3.216a3.2 3.2 0 0 0-1.152-.192c-1.648 0-3.056 1.088-3.056 2.784 0 .928.432 1.616.96 2.016v.064c-.592.4-.928.96-.928 1.456 0 .656.384 1.056.8 1.28v.064c-.832.48-1.28 1.104-1.28 1.728 0 1.376 1.312 2.16 3.584 2.16m-.08-6.928c-.976 0-1.792-.72-1.792-1.84 0-1.088.816-1.824 1.792-1.824.992 0 1.792.736 1.792 1.824 0 1.12-.8 1.84-1.792 1.84m.176 5.968c-1.664 0-2.544-.512-2.544-1.328 0-.448.256-.896.992-1.296.336.096.736.128 1.184.128h1.52c1.184 0 1.776.208 1.776.944 0 .8-1.12 1.552-2.928 1.552m16.656.656h1.312v-2.624l-.064-1.472h.048c.688.64 1.6 1.008 2.32 1.008 1.872 0 3.536-1.552 3.536-4.192 0-2.416-1.12-3.968-3.216-3.968-.96 0-1.968.496-2.688 1.184h-.048l-.112-.992h-1.088Zm3.392-4.192c-.528 0-1.344-.256-2.08-.912v-3.872c.8-.8 1.6-1.168 2.288-1.168 1.552 0 2.192 1.152 2.192 2.864 0 1.92-1.008 3.088-2.4 3.088m9.92 1.104c2.048 0 3.84-1.488 3.84-4.064 0-2.608-1.792-4.096-3.84-4.096s-3.84 1.488-3.84 4.096c0 2.576 1.792 4.064 3.84 4.064m0-1.088c-1.488 0-2.48-1.2-2.48-2.976 0-1.792.992-3.008 2.48-3.008s2.48 1.216 2.48 3.008c0 1.776-.992 2.976-2.48 2.976m10.16 1.088c2.224 0 3.456-1.056 3.456-2.32 0-1.184-.624-1.84-3.216-2.4-1.584-.336-2.256-.624-2.256-1.296 0-.592.464-1.12 1.792-1.12.992 0 1.888.32 2.608.816l.64-.848c-.768-.528-1.952-.992-3.136-.992-2.128 0-3.232.96-3.232 2.208 0 1.168 1.024 1.856 3.04 2.272 2.112.432 2.432.848 2.432 1.44 0 .656-.656 1.216-1.968 1.216-1.44 0-2.48-.416-3.376-1.056l-.608.864c.944.656 2.304 1.216 3.824 1.216m11.344 0c.976 0 1.728-.208 2.432-.464l-.288-.96a5.1 5.1 0 0 1-1.872.352c-1.504 0-1.968-.736-1.968-2.128v-3.696h3.824v-1.072h-3.824v-2.496h-1.088l-.176 2.496-2.24.08v.992h2.192v3.68c0 1.92.736 3.216 3.008 3.216m20.208 0c.848 0 1.36-.16 2.08-.464l-.336-.976c-.528.24-1.008.352-1.456.352-.928 0-1.536-.48-1.536-1.616v-8.88h-4.08v1.072h2.768v7.712c0 1.84.912 2.8 2.56 2.8m8.544-.192h1.312v-7.776h-4.928v1.072h3.616Zm.512-9.408c.592 0 1.056-.4 1.056-1.024 0-.608-.464-1.024-1.056-1.024s-1.056.416-1.056 1.024c0 .624.464 1.024 1.056 1.024m9.392 9.6c2.224 0 3.456-1.056 3.456-2.32 0-1.184-.624-1.84-3.216-2.4-1.584-.336-2.256-.624-2.256-1.296 0-.592.464-1.12 1.792-1.12.992 0 1.888.32 2.608.816l.64-.848c-.768-.528-1.952-.992-3.136-.992-2.128 0-3.232.96-3.232 2.208 0 1.168 1.024 1.856 3.04 2.272 2.112.432 2.432.848 2.432 1.44 0 .656-.656 1.216-1.968 1.216-1.44 0-2.48-.416-3.376-1.056l-.608.864c.944.656 2.304 1.216 3.824 1.216m11.344 0c.976 0 1.728-.208 2.432-.464l-.288-.96a5.1 5.1 0 0 1-1.872.352c-1.504 0-1.968-.736-1.968-2.128v-3.696h3.824v-1.072h-3.824v-2.496h-1.088l-.176 2.496-2.24.08v.992h2.192v3.68c0 1.92.736 3.216 3.008 3.216m8.752-.192h1.312v-7.776h-4.928v1.072h3.616Zm.512-9.408c.592 0 1.056-.4 1.056-1.024 0-.608-.464-1.024-1.056-1.024s-1.056.416-1.056 1.024c0 .624.464 1.024 1.056 1.024m5.92 9.408h1.312v-5.424c.912-.944 1.536-1.408 2.464-1.408 1.28 0 1.792.704 1.792 2.176V289h1.312v-4.832c0-2.048-.848-3.136-2.688-3.136-1.216 0-2.112.656-2.928 1.52h-.064l-.112-1.328h-1.088Zm13.248 3.584c2.64 0 4.32-1.264 4.32-2.72 0-1.312-.96-1.824-2.96-1.824h-1.744c-1.024 0-1.616-.288-1.616-.896 0-.368.224-.656.608-.896.432.192.912.288 1.312.288 1.68 0 3.008-1.008 3.008-2.672 0-.624-.304-1.2-.656-1.568h2.016v-1.072h-3.216a3.2 3.2 0 0 0-1.152-.192c-1.648 0-3.056 1.088-3.056 2.784 0 .928.432 1.616.96 2.016v.064c-.592.4-.928.96-.928 1.456 0 .656.384 1.056.8 1.28v.064c-.832.48-1.28 1.104-1.28 1.728 0 1.376 1.312 2.16 3.584 2.16m-.08-6.928c-.976 0-1.792-.72-1.792-1.84 0-1.088.816-1.824 1.792-1.824.992 0 1.792.736 1.792 1.824 0 1.12-.8 1.84-1.792 1.84m.176 5.968c-1.664 0-2.544-.512-2.544-1.328 0-.448.256-.896.992-1.296.336.096.736.128 1.184.128h1.52c1.184 0 1.776.208 1.776.944 0 .8-1.12 1.552-2.928 1.552m-395.456-27.8h10.848v-1.248H49.376Z"/><path d="M59.376 263.824h10.848v-1.248H59.376Zm28.512 3.408v-1.264l-4.816-3.248v-.064l4.816-3.248v-1.264l-5.968 4.048v.992Zm8.416.96c.976 0 1.728-.208 2.432-.464l-.288-.96a5.1 5.1 0 0 1-1.872.352c-1.504 0-1.968-.736-1.968-2.128v-3.696h3.824v-1.072h-3.824v-2.496H93.52l-.176 2.496-2.24.08v.992h2.192v3.68c0 1.92.736 3.216 3.008 3.216m7.632 0c1.104 0 2.208-.576 3.072-1.248h.048l.112 1.056h1.072v-4.768c0-1.936-1.024-3.2-3.152-3.2-1.36 0-2.672.608-3.456 1.12l.512.896c.72-.448 1.712-.928 2.72-.928 1.504 0 2.032.896 2.064 1.952-4.016.32-5.632 1.168-5.632 2.912 0 1.392 1.184 2.208 2.64 2.208m.352-1.056c-.896 0-1.712-.368-1.712-1.248 0-1.024 1.024-1.68 4.352-1.952v2.048c-.88.736-1.76 1.152-2.64 1.152m10.448 4.448c2.64 0 4.32-1.264 4.32-2.72 0-1.312-.96-1.824-2.96-1.824h-1.744c-1.024 0-1.616-.288-1.616-.896 0-.368.224-.656.608-.896.432.192.912.288 1.312.288 1.68 0 3.008-1.008 3.008-2.672 0-.624-.304-1.2-.656-1.568h2.016v-1.072h-3.216a3.2 3.2 0 0 0-1.152-.192c-1.648 0-3.056 1.088-3.056 2.784 0 .928.432 1.616.96 2.016v.064c-.592.4-.928.96-.928 1.456 0 .656.384 1.056.8 1.28v.064c-.832.48-1.28 1.104-1.28 1.728 0 1.376 1.312 2.16 3.584 2.16m-.08-6.928c-.976 0-1.792-.72-1.792-1.84 0-1.088.816-1.824 1.792-1.824.992 0 1.792.736 1.792 1.824 0 1.12-.8 1.84-1.792 1.84m.176 5.968c-1.664 0-2.544-.512-2.544-1.328 0-.448.256-.896.992-1.296.336.096.736.128 1.184.128h1.52c1.184 0 1.776.208 1.776.944 0 .8-1.12 1.552-2.928 1.552m6.88-3.392 5.968-4.048v-.992l-5.968-4.048v1.264l4.816 3.248v.064l-4.816 3.248Zm9.872 3.328h1.184l5.248-13.92h-1.184ZM9.376 242.824h10.848v-1.248H9.376Z"/><path d="M19.376 242.824h10.848v-1.248H19.376Zm26.928 4.368c.976 0 1.728-.208 2.432-.464l-.288-.96a5.1 5.1 0 0 1-1.872.352c-1.504 0-1.968-.736-1.968-2.128v-3.696h3.824v-1.072h-3.824v-2.496H43.52l-.176 2.496-2.24.08v.992h2.192v3.68c0 1.92.736 3.216 3.008 3.216m7.632 0c1.104 0 2.208-.576 3.072-1.248h.048l.112 1.056h1.072v-4.768c0-1.936-1.024-3.2-3.152-3.2-1.36 0-2.672.608-3.456 1.12l.512.896c.72-.448 1.712-.928 2.72-.928 1.504 0 2.032.896 2.064 1.952-4.016.32-5.632 1.168-5.632 2.912 0 1.392 1.184 2.208 2.64 2.208m.352-1.056c-.896 0-1.712-.368-1.712-1.248 0-1.024 1.024-1.68 4.352-1.952v2.048c-.88.736-1.76 1.152-2.64 1.152m10.448 4.448c2.64 0 4.32-1.264 4.32-2.72 0-1.312-.96-1.824-2.96-1.824h-1.744c-1.024 0-1.616-.288-1.616-.896 0-.368.224-.656.608-.896.432.192.912.288 1.312.288 1.68 0 3.008-1.008 3.008-2.672 0-.624-.304-1.2-.656-1.568h2.016v-1.072h-3.216a3.2 3.2 0 0 0-1.152-.192c-1.648 0-3.056 1.088-3.056 2.784 0 .928.432 1.616.96 2.016v.064c-.592.4-.928.96-.928 1.456 0 .656.384 1.056.8 1.28v.064c-.832.48-1.28 1.104-1.28 1.728 0 1.376 1.312 2.16 3.584 2.16m-.08-6.928c-.976 0-1.792-.72-1.792-1.84 0-1.088.816-1.824 1.792-1.824.992 0 1.792.736 1.792 1.824 0 1.12-.8 1.84-1.792 1.84m.176 5.968c-1.664 0-2.544-.512-2.544-1.328 0-.448.256-.896.992-1.296.336.096.736.128 1.184.128h1.52c1.184 0 1.776.208 1.776.944 0 .8-1.12 1.552-2.928 1.552m10.128-2.432c2.224 0 3.456-1.056 3.456-2.32 0-1.184-.624-1.84-3.216-2.4-1.584-.336-2.256-.624-2.256-1.296 0-.592.464-1.12 1.792-1.12.992 0 1.888.32 2.608.816l.64-.848c-.768-.528-1.952-.992-3.136-.992-2.128 0-3.232.96-3.232 2.208 0 1.168 1.024 1.856 3.04 2.272 2.112.432 2.432.848 2.432 1.44 0 .656-.656 1.216-1.968 1.216-1.44 0-2.48-.416-3.376-1.056l-.608.864c.944.656 2.304 1.216 3.824 1.216m6.624 2.368h1.184l5.248-13.92h-1.184Zm-31.36-27.736v-1.248h-4.8V210h-1.248v11.824Z"/><path d="M49.376 221.824h10.848v-1.248H49.376Z"/><path d="M59.376 221.824h10.848v-1.248H59.376ZM85.056 226h1.312v-7.776H81.44v1.072h3.616Zm.512-9.408c.592 0 1.056-.4 1.056-1.024 0-.608-.464-1.024-1.056-1.024s-1.056.416-1.056 1.024c0 .624.464 1.024 1.056 1.024m5.92 9.408H92.8v-5.424c.912-.944 1.536-1.408 2.464-1.408 1.28 0 1.792.704 1.792 2.176V226h1.312v-4.832c0-2.048-.848-3.136-2.688-3.136-1.216 0-2.112.656-2.928 1.52h-.064l-.112-1.328h-1.088Zm12.848.192c.96 0 1.888-.56 2.528-1.216h.048l.112 1.024h1.088v-11.392H106.8v2.992l.064 1.44h-.048c-.672-.64-1.392-1.008-2.32-1.008-1.84 0-3.536 1.568-3.536 4.096 0 2.592 1.344 4.064 3.376 4.064m.272-1.104c-1.44 0-2.288-1.12-2.288-2.976 0-1.776 1.088-2.976 2.432-2.976.672 0 1.344.256 2.048.912v3.872c-.688.768-1.424 1.168-2.192 1.168m10.48-6.016c1.328 0 2.208.784 2.32 2.384h-4.96c.24-1.536 1.36-2.384 2.64-2.384m.192 7.12c1.248 0 2.24-.416 3.008-.928l-.48-.864c-.704.448-1.44.736-2.368.736-1.616 0-2.864-.896-3.024-2.656h6.128c.032-.208.064-.496.064-.8 0-2.192-1.312-3.648-3.552-3.648-2.08 0-3.968 1.536-3.968 4.064 0 2.592 1.856 4.096 4.192 4.096m5.744-.192h1.408l1.28-1.792c.32-.496.64-.944.96-1.408h.064c.336.448.704.96 1.024 1.408l1.36 1.792h1.44l-2.976-3.92 2.768-3.856h-1.392l-1.168 1.68c-.272.432-.592.912-.88 1.344h-.064a28 28 0 0 1-.912-1.312l-1.232-1.712h-1.456l2.736 3.744Zm13.776.192c.72 0 1.296-.544 1.296-1.344 0-.816-.576-1.36-1.296-1.36s-1.296.544-1.296 1.36c0 .8.576 1.344 1.296 1.344m6.688-.192h1.312v-5.424c.912-.944 1.536-1.408 2.464-1.408 1.28 0 1.792.704 1.792 2.176V226h1.312v-4.832c0-2.048-.848-3.136-2.688-3.136-1.216 0-2.112.656-2.912 1.52h-.048l.08-1.84v-3.104h-1.312Zm14.816.192c.976 0 1.728-.208 2.432-.464l-.288-.96a5.1 5.1 0 0 1-1.872.352c-1.504 0-1.968-.736-1.968-2.128v-3.696h3.824v-1.072h-3.824v-2.496h-1.088l-.176 2.496-2.24.08v.992h2.192v3.68c0 1.92.736 3.216 3.008 3.216m4.624-.192h1.312v-5.632c.384-.8.736-1.2 1.28-1.2.576 0 .8.464.8 1.36V226h1.216v-5.632c.416-.8.704-1.2 1.248-1.2.576 0 .832.464.832 1.36V226h1.312v-5.568c0-1.552-.64-2.4-1.728-2.4-.896 0-1.376.512-1.824 1.344-.224-.896-.704-1.344-1.472-1.344-.896 0-1.376.496-1.776 1.216h-.032l-.112-1.024h-1.056Zm15.584.192c.848 0 1.36-.16 2.08-.464l-.336-.976c-.528.24-1.008.352-1.456.352-.928 0-1.536-.48-1.536-1.616v-8.88h-4.08v1.072h2.768v7.712c0 1.84.912 2.8 2.56 2.8m57.136-4.368.288-2.368h2.112l-.288 2.368ZM232.272 226h.864l.4-3.264h2.112l-.4 3.264h.864l.4-3.264h1.472v-.912h-1.36l.288-2.368h1.392v-.928h-1.28l.352-2.928h-.848l-.368 2.928h-2.112l.352-2.928h-.848l-.368 2.928h-1.472v.928h1.36l-.288 2.368h-1.392v.912h1.28Zm21.6 0h1.296v-6.704h3.264v-1.072h-3.264v-.704c0-1.264.576-2.032 1.968-2.032.672 0 1.168.08 1.808.368l.304-.992a5.8 5.8 0 0 0-2.24-.448c-2.144 0-3.136 1.248-3.136 3.152v.656l-2.224.08v.992h2.224Zm10.064.192c1.2 0 2.112-.64 2.896-1.552h.064l.112 1.36h1.072v-7.776h-1.312v5.392c-.864 1.008-1.52 1.44-2.416 1.44-1.296 0-1.792-.704-1.792-2.176v-4.656h-1.328v4.832c0 2.048.848 3.136 2.704 3.136m12.576 0c.848 0 1.36-.16 2.08-.464l-.336-.976c-.528.24-1.008.352-1.456.352-.928 0-1.536-.48-1.536-1.616v-8.88h-4.08v1.072h2.768v7.712c0 1.84.912 2.8 2.56 2.8m10 0c.848 0 1.36-.16 2.08-.464l-.336-.976c-.528.24-1.008.352-1.456.352-.928 0-1.536-.48-1.536-1.616v-8.88h-4.08v1.072h2.768v7.712c0 1.84.912 2.8 2.56 2.8m14.976 3.088h1.312v-2.624l-.064-1.472h.048c.688.64 1.6 1.008 2.32 1.008 1.872 0 3.536-1.552 3.536-4.192 0-2.416-1.12-3.968-3.216-3.968-.96 0-1.968.496-2.688 1.184h-.048l-.112-.992h-1.088Zm3.392-4.192c-.528 0-1.344-.256-2.08-.912v-3.872c.8-.8 1.6-1.168 2.288-1.168 1.552 0 2.192 1.152 2.192 2.864 0 1.92-1.008 3.088-2.4 3.088m9.92 1.104c2.048 0 3.84-1.488 3.84-4.064 0-2.608-1.792-4.096-3.84-4.096s-3.84 1.488-3.84 4.096c0 2.576 1.792 4.064 3.84 4.064m0-1.088c-1.488 0-2.48-1.2-2.48-2.976 0-1.792.992-3.008 2.48-3.008s2.48 1.216 2.48 3.008c0 1.776-.992 2.976-2.48 2.976m10.16 1.088c2.224 0 3.456-1.056 3.456-2.32 0-1.184-.624-1.84-3.216-2.4-1.584-.336-2.256-.624-2.256-1.296 0-.592.464-1.12 1.792-1.12.992 0 1.888.32 2.608.816l.64-.848c-.768-.528-1.952-.992-3.136-.992-2.128 0-3.232.96-3.232 2.208 0 1.168 1.024 1.856 3.04 2.272 2.112.432 2.432.848 2.432 1.44 0 .656-.656 1.216-1.968 1.216-1.44 0-2.48-.416-3.376-1.056l-.608.864c.944.656 2.304 1.216 3.824 1.216m11.344 0c.976 0 1.728-.208 2.432-.464l-.288-.96a5.1 5.1 0 0 1-1.872.352c-1.504 0-1.968-.736-1.968-2.128v-3.696h3.824v-1.072h-3.824v-2.496h-1.088l-.176 2.496-2.24.08v.992h2.192v3.68c0 1.92.736 3.216 3.008 3.216m17.632 0c1.104 0 2.208-.576 3.072-1.248h.048l.112 1.056h1.072v-4.768c0-1.936-1.024-3.2-3.152-3.2-1.36 0-2.672.608-3.456 1.12l.512.896c.72-.448 1.712-.928 2.72-.928 1.504 0 2.032.896 2.064 1.952-4.016.32-5.632 1.168-5.632 2.912 0 1.392 1.184 2.208 2.64 2.208m.352-1.056c-.896 0-1.712-.368-1.712-1.248 0-1.024 1.024-1.68 4.352-1.952v2.048c-.88.736-1.76 1.152-2.64 1.152m8.048.864h1.312v-4.56c.928-1.616 2.032-2.224 3.2-2.224.608 0 .896.08 1.44.272l.304-1.136c-.48-.24-.96-.32-1.536-.32-1.44 0-2.656.784-3.472 2.032h-.048l-.112-1.84h-1.088Zm13.2.192c1.152 0 2.224-.448 3.088-1.216l-.592-.848c-.64.544-1.44.976-2.4.976-1.792 0-2.992-1.2-2.992-2.976 0-1.792 1.232-3.008 3.024-3.008.816 0 1.488.336 2.128.896l.656-.848c-.64-.624-1.568-1.136-2.832-1.136-2.352 0-4.336 1.488-4.336 4.096 0 2.576 1.824 4.064 4.256 4.064m5.952-.192h1.312v-5.424c.912-.944 1.536-1.408 2.464-1.408 1.28 0 1.792.704 1.792 2.176V226h1.312v-4.832c0-2.048-.848-3.136-2.688-3.136-1.216 0-2.112.656-2.912 1.52h-.048l.08-1.84v-3.104h-1.312Zm13.568 0h1.312v-7.776h-4.928v1.072h3.616Zm.512-9.408c.592 0 1.056-.4 1.056-1.024 0-.608-.464-1.024-1.056-1.024s-1.056.416-1.056 1.024c0 .624.464 1.024 1.056 1.024m8.528 9.408h1.472l3.216-7.776h-1.264l-1.792 4.416c-.32.784-.576 1.552-.848 2.288h-.064a73 73 0 0 0-.88-2.288l-1.792-4.416h-1.328Zm10.992-6.928c1.328 0 2.208.784 2.32 2.384h-4.96c.24-1.536 1.36-2.384 2.64-2.384m.192 7.12c1.248 0 2.24-.416 3.008-.928l-.48-.864c-.704.448-1.44.736-2.368.736-1.616 0-2.864-.896-3.024-2.656h6.128c.032-.208.064-.496.064-.8 0-2.192-1.312-3.648-3.552-3.648-2.08 0-3.968 1.536-3.968 4.064 0 2.592 1.856 4.096 4.192 4.096M9.376 200.824h10.848v-1.248H9.376Z"/><path d="M19.376 200.824h10.848v-1.248H19.376Zm24.56 4.368c1.104 0 2.208-.576 3.072-1.248h.048l.112 1.056h1.072v-4.768c0-1.936-1.024-3.2-3.152-3.2-1.36 0-2.672.608-3.456 1.12l.512.896c.72-.448 1.712-.928 2.72-.928 1.504 0 2.032.896 2.064 1.952-4.016.32-5.632 1.168-5.632 2.912 0 1.392 1.184 2.208 2.64 2.208m.352-1.056c-.896 0-1.712-.368-1.712-1.248 0-1.024 1.024-1.68 4.352-1.952v2.048c-.88.736-1.76 1.152-2.64 1.152m8.048.864h1.312v-4.56c.928-1.616 2.032-2.224 3.2-2.224.608 0 .896.08 1.44.272l.304-1.136c-.48-.24-.96-.32-1.536-.32-1.44 0-2.656.784-3.472 2.032h-.048l-.112-1.84h-1.088Zm13.2.192c1.152 0 2.224-.448 3.088-1.216l-.592-.848c-.64.544-1.44.976-2.4.976-1.792 0-2.992-1.2-2.992-2.976 0-1.792 1.232-3.008 3.024-3.008.816 0 1.488.336 2.128.896l.656-.848c-.64-.624-1.568-1.136-2.832-1.136-2.352 0-4.336 1.488-4.336 4.096 0 2.576 1.824 4.064 4.256 4.064m5.952-.192H72.8v-5.424c.912-.944 1.536-1.408 2.464-1.408 1.28 0 1.792.704 1.792 2.176V205h1.312v-4.832c0-2.048-.848-3.136-2.688-3.136-1.216 0-2.112.656-2.912 1.52h-.048l.08-1.84v-3.104h-1.312Zm13.568 0h1.312v-7.776H81.44v1.072h3.616Zm.512-9.408c.592 0 1.056-.4 1.056-1.024 0-.608-.464-1.024-1.056-1.024s-1.056.416-1.056 1.024c0 .624.464 1.024 1.056 1.024M94.096 205h1.472l3.216-7.776H97.52l-1.792 4.416c-.32.784-.576 1.552-.848 2.288h-.064a73 73 0 0 0-.88-2.288l-1.792-4.416h-1.328Zm10.992-6.928c1.328 0 2.208.784 2.32 2.384h-4.96c.24-1.536 1.36-2.384 2.64-2.384m.192 7.12c1.248 0 2.24-.416 3.008-.928l-.48-.864c-.704.448-1.44.736-2.368.736-1.616 0-2.864-.896-3.024-2.656h6.128c.032-.208.064-.496.064-.8 0-2.192-1.312-3.648-3.552-3.648-2.08 0-3.968 1.536-3.968 4.064 0 2.592 1.856 4.096 4.192 4.096m6.304 2.368h1.184l5.248-13.92h-1.184Zm-61.36-27.736v-1.248h-4.8V168h-1.248v11.824Z"/><path d="M49.376 179.824h10.848v-1.248H49.376Z"/><path d="M59.376 179.824h10.848v-1.248H59.376Zm25.424 4.368c.72 0 1.296-.544 1.296-1.344 0-.816-.576-1.36-1.296-1.36s-1.296.544-1.296 1.36c0 .8.576 1.344 1.296 1.344m10 0c.72 0 1.296-.544 1.296-1.344 0-.816-.576-1.36-1.296-1.36s-1.296.544-1.296 1.36c0 .8.576 1.344 1.296 1.344m10 0c.72 0 1.296-.544 1.296-1.344 0-.816-.576-1.36-1.296-1.36s-1.296.544-1.296 1.36c0 .8.576 1.344 1.296 1.344m128.848-4.368.288-2.368h2.112l-.288 2.368ZM232.272 184h.864l.4-3.264h2.112l-.4 3.264h.864l.4-3.264h1.472v-.912h-1.36l.288-2.368h1.392v-.928h-1.28l.352-2.928h-.848l-.368 2.928h-2.112l.352-2.928h-.848l-.368 2.928h-1.472v.928h1.36l-.288 2.368h-1.392v.912h1.28Zm23.264.192c1.152 0 2.224-.448 3.088-1.216l-.592-.848c-.64.544-1.44.976-2.4.976-1.792 0-2.992-1.2-2.992-2.976 0-1.792 1.232-3.008 3.024-3.008.816 0 1.488.336 2.128.896l.656-.848c-.64-.624-1.568-1.136-2.832-1.136-2.352 0-4.336 1.488-4.336 4.096 0 2.576 1.824 4.064 4.256 4.064m9.264 0c2.048 0 3.84-1.488 3.84-4.064 0-2.608-1.792-4.096-3.84-4.096s-3.84 1.488-3.84 4.096c0 2.576 1.792 4.064 3.84 4.064m0-1.088c-1.488 0-2.48-1.2-2.48-2.976 0-1.792.992-3.008 2.48-3.008s2.48 1.216 2.48 3.008c0 1.776-.992 2.976-2.48 2.976m6.688 4.176h1.312v-2.624l-.064-1.472h.048c.688.64 1.6 1.008 2.32 1.008 1.872 0 3.536-1.552 3.536-4.192 0-2.416-1.12-3.968-3.216-3.968-.96 0-1.968.496-2.688 1.184h-.048l-.112-.992h-1.088Zm3.392-4.192c-.528 0-1.344-.256-2.08-.912v-3.872c.8-.8 1.6-1.168 2.288-1.168 1.552 0 2.192 1.152 2.192 2.864 0 1.92-1.008 3.088-2.4 3.088m10.176.912h1.312v-7.776h-4.928v1.072h3.616Zm.512-9.408c.592 0 1.056-.4 1.056-1.024 0-.608-.464-1.024-1.056-1.024s-1.056.416-1.056 1.024c0 .624.464 1.024 1.056 1.024m9.52 2.48c1.328 0 2.208.784 2.32 2.384h-4.96c.24-1.536 1.36-2.384 2.64-2.384m.192 7.12c1.248 0 2.24-.416 3.008-.928l-.48-.864c-.704.448-1.44.736-2.368.736-1.616 0-2.864-.896-3.024-2.656h6.128c.032-.208.064-.496.064-.8 0-2.192-1.312-3.648-3.552-3.648-2.08 0-3.968 1.536-3.968 4.064 0 2.592 1.856 4.096 4.192 4.096m9.056 0c.96 0 1.888-.56 2.528-1.216h.048l.112 1.024h1.088v-11.392H306.8v2.992l.064 1.44h-.048c-.672-.64-1.392-1.008-2.32-1.008-1.84 0-3.536 1.568-3.536 4.096 0 2.592 1.344 4.064 3.376 4.064m.272-1.104c-1.44 0-2.288-1.12-2.288-2.976 0-1.776 1.088-2.976 2.432-2.976.672 0 1.344.256 2.048.912v3.872c-.688.768-1.424 1.168-2.192 1.168m19.488.912h1.472l3.216-7.776h-1.264l-1.792 4.416c-.32.784-.576 1.552-.848 2.288h-.064a73 73 0 0 0-.88-2.288l-1.792-4.416h-1.328Zm10.992-6.928c1.328 0 2.208.784 2.32 2.384h-4.96c.24-1.536 1.36-2.384 2.64-2.384m.192 7.12c1.248 0 2.24-.416 3.008-.928l-.48-.864c-.704.448-1.44.736-2.368.736-1.616 0-2.864-.896-3.024-2.656h6.128c.032-.208.064-.496.064-.8 0-2.192-1.312-3.648-3.552-3.648-2.08 0-3.968 1.536-3.968 4.064 0 2.592 1.856 4.096 4.192 4.096m7.056-.192h1.312v-4.56c.928-1.616 2.032-2.224 3.2-2.224.608 0 .896.08 1.44.272l.304-1.136c-.48-.24-.96-.32-1.536-.32-1.44 0-2.656.784-3.472 2.032h-.048l-.112-1.84h-1.088Zm12.784.192c1.856 0 3.52-1.552 3.52-4.208 0-2.4-1.136-3.952-3.232-3.952-.912 0-1.904.464-2.608 1.184h-.048l.048-1.504v-3.104h-1.312V184h1.056l.112-.864h.048c.736.656 1.664 1.056 2.416 1.056m-.208-1.104c-.56 0-1.376-.256-2.112-.912v-3.872c.8-.8 1.6-1.168 2.288-1.168 1.552 0 2.192 1.152 2.192 2.864 0 1.92-1.008 3.088-2.368 3.088m9.024 1.104c1.104 0 2.208-.576 3.072-1.248h.048l.112 1.056h1.072v-4.768c0-1.936-1.024-3.2-3.152-3.2-1.36 0-2.672.608-3.456 1.12l.512.896c.72-.448 1.712-.928 2.72-.928 1.504 0 2.032.896 2.064 1.952-4.016.32-5.632 1.168-5.632 2.912 0 1.392 1.184 2.208 2.64 2.208m.352-1.056c-.896 0-1.712-.368-1.712-1.248 0-1.024 1.024-1.68 4.352-1.952v2.048c-.88.736-1.76 1.152-2.64 1.152m12.016 1.056c.976 0 1.728-.208 2.432-.464l-.288-.96a5.1 5.1 0 0 1-1.872.352c-1.504 0-1.968-.736-1.968-2.128v-3.696h3.824v-1.072h-3.824v-2.496h-1.088l-.176 2.496-2.24.08v.992h2.192v3.68c0 1.92.736 3.216 3.008 3.216m8.752-.192h1.312v-7.776h-4.928v1.072h3.616Zm.512-9.408c.592 0 1.056-.4 1.056-1.024 0-.608-.464-1.024-1.056-1.024s-1.056.416-1.056 1.024c0 .624.464 1.024 1.056 1.024m5.36 9.408h1.312v-5.632c.384-.8.736-1.2 1.28-1.2.576 0 .8.464.8 1.36V184h1.216v-5.632c.416-.8.704-1.2 1.248-1.2.576 0 .832.464.832 1.36V184h1.312v-5.568c0-1.552-.64-2.4-1.728-2.4-.896 0-1.376.512-1.824 1.344-.224-.896-.704-1.344-1.472-1.344-.896 0-1.376.496-1.776 1.216h-.032l-.112-1.024h-1.056Zm22.944 0h1.296v-6.704h3.264v-1.072h-3.264v-.704c0-1.264.576-2.032 1.968-2.032.672 0 1.168.08 1.808.368l.304-.992a5.8 5.8 0 0 0-2.24-.448c-2.144 0-3.136 1.248-3.136 3.152v.656l-2.224.08v.992h2.224Zm8.464 0h1.312v-4.56c.928-1.616 2.032-2.224 3.2-2.224.608 0 .896.08 1.44.272l.304-1.136c-.48-.24-.96-.32-1.536-.32-1.44 0-2.656.784-3.472 2.032h-.048l-.112-1.84h-1.088Zm12.464.192c2.048 0 3.84-1.488 3.84-4.064 0-2.608-1.792-4.096-3.84-4.096s-3.84 1.488-3.84 4.096c0 2.576 1.792 4.064 3.84 4.064m0-1.088c-1.488 0-2.48-1.2-2.48-2.976 0-1.792.992-3.008 2.48-3.008s2.48 1.216 2.48 3.008c0 1.776-.992 2.976-2.48 2.976m6.128.896h1.312v-5.632c.384-.8.736-1.2 1.28-1.2.576 0 .8.464.8 1.36V184h1.216v-5.632c.416-.8.704-1.2 1.248-1.2.576 0 .832.464.832 1.36V184h1.312v-5.568c0-1.552-.64-2.4-1.728-2.4-.896 0-1.376.512-1.824 1.344-.224-.896-.704-1.344-1.472-1.344-.896 0-1.376.496-1.776 1.216h-.032l-.112-1.024h-1.056Zm24.032.192c2.224 0 3.456-1.056 3.456-2.32 0-1.184-.624-1.84-3.216-2.4-1.584-.336-2.256-.624-2.256-1.296 0-.592.464-1.12 1.792-1.12.992 0 1.888.32 2.608.816l.64-.848c-.768-.528-1.952-.992-3.136-.992-2.128 0-3.232.96-3.232 2.208 0 1.168 1.024 1.856 3.04 2.272 2.112.432 2.432.848 2.432 1.44 0 .656-.656 1.216-1.968 1.216-1.44 0-2.48-.416-3.376-1.056l-.608.864c.944.656 2.304 1.216 3.824 1.216m9.84 0c2.048 0 3.84-1.488 3.84-4.064 0-2.608-1.792-4.096-3.84-4.096s-3.84 1.488-3.84 4.096c0 2.576 1.792 4.064 3.84 4.064m0-1.088c-1.488 0-2.48-1.2-2.48-2.976 0-1.792.992-3.008 2.48-3.008s2.48 1.216 2.48 3.008c0 1.776-.992 2.976-2.48 2.976m9.136 1.088c1.2 0 2.112-.64 2.896-1.552h.064l.112 1.36h1.072v-7.776h-1.312v5.392c-.864 1.008-1.52 1.44-2.416 1.44-1.296 0-1.792-.704-1.792-2.176v-4.656h-1.328v4.832c0 2.048.848 3.136 2.704 3.136m8.4-.192h1.312v-4.56c.928-1.616 2.032-2.224 3.2-2.224.608 0 .896.08 1.44.272l.304-1.136c-.48-.24-.96-.32-1.536-.32-1.44 0-2.656.784-3.472 2.032h-.048l-.112-1.84h-1.088Zm13.2.192c1.152 0 2.224-.448 3.088-1.216l-.592-.848c-.64.544-1.44.976-2.4.976-1.792 0-2.992-1.2-2.992-2.976 0-1.792 1.232-3.008 3.024-3.008.816 0 1.488.336 2.128.896l.656-.848c-.64-.624-1.568-1.136-2.832-1.136-2.352 0-4.336 1.488-4.336 4.096 0 2.576 1.824 4.064 4.256 4.064m9.552-7.12c1.328 0 2.208.784 2.32 2.384h-4.96c.24-1.536 1.36-2.384 2.64-2.384m.192 7.12c1.248 0 2.24-.416 3.008-.928l-.48-.864c-.704.448-1.44.736-2.368.736-1.616 0-2.864-.896-3.024-2.656h6.128c.032-.208.064-.496.064-.8 0-2.192-1.312-3.648-3.552-3.648-2.08 0-3.968 1.536-3.968 4.064 0 2.592 1.856 4.096 4.192 4.096M9.376 158.824h10.848v-1.248H9.376Z"/><path d="M19.376 158.824h10.848v-1.248H19.376ZM45.056 163h1.312v-7.776H41.44v1.072h3.616Zm.512-9.408c.592 0 1.056-.4 1.056-1.024 0-.608-.464-1.024-1.056-1.024s-1.056.416-1.056 1.024c0 .624.464 1.024 1.056 1.024m5.36 9.408h1.312v-5.632c.384-.8.736-1.2 1.28-1.2.576 0 .8.464.8 1.36V163h1.216v-5.632c.416-.8.704-1.2 1.248-1.2.576 0 .832.464.832 1.36V163h1.312v-5.568c0-1.552-.64-2.4-1.728-2.4-.896 0-1.376.512-1.824 1.344-.224-.896-.704-1.344-1.472-1.344-.896 0-1.376.496-1.776 1.216h-.032l-.112-1.024h-1.056Zm13.008.192c1.104 0 2.208-.576 3.072-1.248h.048l.112 1.056h1.072v-4.768c0-1.936-1.024-3.2-3.152-3.2-1.36 0-2.672.608-3.456 1.12l.512.896c.72-.448 1.712-.928 2.72-.928 1.504 0 2.032.896 2.064 1.952-4.016.32-5.632 1.168-5.632 2.912 0 1.392 1.184 2.208 2.64 2.208m.352-1.056c-.896 0-1.712-.368-1.712-1.248 0-1.024 1.024-1.68 4.352-1.952v2.048c-.88.736-1.76 1.152-2.64 1.152m10.448 4.448c2.64 0 4.32-1.264 4.32-2.72 0-1.312-.96-1.824-2.96-1.824h-1.744c-1.024 0-1.616-.288-1.616-.896 0-.368.224-.656.608-.896.432.192.912.288 1.312.288 1.68 0 3.008-1.008 3.008-2.672 0-.624-.304-1.2-.656-1.568h2.016v-1.072h-3.216a3.2 3.2 0 0 0-1.152-.192c-1.648 0-3.056 1.088-3.056 2.784 0 .928.432 1.616.96 2.016v.064c-.592.4-.928.96-.928 1.456 0 .656.384 1.056.8 1.28v.064c-.832.48-1.28 1.104-1.28 1.728 0 1.376 1.312 2.16 3.584 2.16m-.08-6.928c-.976 0-1.792-.72-1.792-1.84 0-1.088.816-1.824 1.792-1.824.992 0 1.792.736 1.792 1.824 0 1.12-.8 1.84-1.792 1.84m.176 5.968c-1.664 0-2.544-.512-2.544-1.328 0-.448.256-.896.992-1.296.336.096.736.128 1.184.128h1.52c1.184 0 1.776.208 1.776.944 0 .8-1.12 1.552-2.928 1.552m10.256-9.552c1.328 0 2.208.784 2.32 2.384h-4.96c.24-1.536 1.36-2.384 2.64-2.384m.192 7.12c1.248 0 2.24-.416 3.008-.928l-.48-.864c-.704.448-1.44.736-2.368.736-1.616 0-2.864-.896-3.024-2.656h6.128c.032-.208.064-.496.064-.8 0-2.192-1.312-3.648-3.552-3.648-2.08 0-3.968 1.536-3.968 4.064 0 2.592 1.856 4.096 4.192 4.096m9.68 0c2.224 0 3.456-1.056 3.456-2.32 0-1.184-.624-1.84-3.216-2.4-1.584-.336-2.256-.624-2.256-1.296 0-.592.464-1.12 1.792-1.12.992 0 1.888.32 2.608.816l.64-.848c-.768-.528-1.952-.992-3.136-.992-2.128 0-3.232.96-3.232 2.208 0 1.168 1.024 1.856 3.04 2.272 2.112.432 2.432.848 2.432 1.44 0 .656-.656 1.216-1.968 1.216-1.44 0-2.48-.416-3.376-1.056l-.608.864c.944.656 2.304 1.216 3.824 1.216m6.624 2.368h1.184l5.248-13.92h-1.184Zm-51.36-27.736v-1.248h-4.8V126h-1.248v11.824Z"/><path d="M49.376 137.824h10.848v-1.248H49.376Z"/><path d="M59.376 137.824h10.848v-1.248H59.376Zm24.96 4.368c.96 0 1.888-.56 2.528-1.216h.048l.112 1.024h1.088v-11.392H86.8v2.992l.064 1.44h-.048c-.672-.64-1.392-1.008-2.32-1.008-1.84 0-3.536 1.568-3.536 4.096 0 2.592 1.344 4.064 3.376 4.064m.272-1.104c-1.44 0-2.288-1.12-2.288-2.976 0-1.776 1.088-2.976 2.432-2.976.672 0 1.344.256 2.048.912v3.872c-.688.768-1.424 1.168-2.192 1.168m10.48-6.016c1.328 0 2.208.784 2.32 2.384h-4.96c.24-1.536 1.36-2.384 2.64-2.384m.192 7.12c1.248 0 2.24-.416 3.008-.928l-.48-.864c-.704.448-1.44.736-2.368.736-1.616 0-2.864-.896-3.024-2.656h6.128c.032-.208.064-.496.064-.8 0-2.192-1.312-3.648-3.552-3.648-2.08 0-3.968 1.536-3.968 4.064 0 2.592 1.856 4.096 4.192 4.096m8.592-.192h1.296v-6.704h3.264v-1.072h-3.264v-.704c0-1.264.576-2.032 1.968-2.032.672 0 1.168.08 1.808.368l.304-.992a5.8 5.8 0 0 0-2.24-.448c-2.144 0-3.136 1.248-3.136 3.152v.656l-2.224.08v.992h2.224Zm10.064.192c1.104 0 2.208-.576 3.072-1.248h.048l.112 1.056h1.072v-4.768c0-1.936-1.024-3.2-3.152-3.2-1.36 0-2.672.608-3.456 1.12l.512.896c.72-.448 1.712-.928 2.72-.928 1.504 0 2.032.896 2.064 1.952-4.016.32-5.632 1.168-5.632 2.912 0 1.392 1.184 2.208 2.64 2.208m.352-1.056c-.896 0-1.712-.368-1.712-1.248 0-1.024 1.024-1.68 4.352-1.952v2.048c-.88.736-1.76 1.152-2.64 1.152m9.648 1.056c1.2 0 2.112-.64 2.896-1.552h.064l.112 1.36h1.072v-7.776h-1.312v5.392c-.864 1.008-1.52 1.44-2.416 1.44-1.296 0-1.792-.704-1.792-2.176v-4.656h-1.328v4.832c0 2.048.848 3.136 2.704 3.136m12.576 0c.848 0 1.36-.16 2.08-.464l-.336-.976c-.528.24-1.008.352-1.456.352-.928 0-1.536-.48-1.536-1.616v-8.88h-4.08v1.072h2.768v7.712c0 1.84.912 2.8 2.56 2.8m9.792 0c.976 0 1.728-.208 2.432-.464l-.288-.96a5.1 5.1 0 0 1-1.872.352c-1.504 0-1.968-.736-1.968-2.128v-3.696h3.824v-1.072h-3.824v-2.496h-1.088l-.176 2.496-2.24.08v.992h2.192v3.68c0 1.92.736 3.216 3.008 3.216m8.496 0c.72 0 1.296-.544 1.296-1.344 0-.816-.576-1.36-1.296-1.36s-1.296.544-1.296 1.36c0 .8.576 1.344 1.296 1.344m10.736 0c1.152 0 2.224-.448 3.088-1.216l-.592-.848c-.64.544-1.44.976-2.4.976-1.792 0-2.992-1.2-2.992-2.976 0-1.792 1.232-3.008 3.024-3.008.816 0 1.488.336 2.128.896l.656-.848c-.64-.624-1.568-1.136-2.832-1.136-2.352 0-4.336 1.488-4.336 4.096 0 2.576 1.824 4.064 4.256 4.064m9.424 0c2.224 0 3.456-1.056 3.456-2.32 0-1.184-.624-1.84-3.216-2.4-1.584-.336-2.256-.624-2.256-1.296 0-.592.464-1.12 1.792-1.12.992 0 1.888.32 2.608.816l.64-.848c-.768-.528-1.952-.992-3.136-.992-2.128 0-3.232.96-3.232 2.208 0 1.168 1.024 1.856 3.04 2.272 2.112.432 2.432.848 2.432 1.44 0 .656-.656 1.216-1.968 1.216-1.44 0-2.48-.416-3.376-1.056l-.608.864c.944.656 2.304 1.216 3.824 1.216m10 0c2.224 0 3.456-1.056 3.456-2.32 0-1.184-.624-1.84-3.216-2.4-1.584-.336-2.256-.624-2.256-1.296 0-.592.464-1.12 1.792-1.12.992 0 1.888.32 2.608.816l.64-.848c-.768-.528-1.952-.992-3.136-.992-2.128 0-3.232.96-3.232 2.208 0 1.168 1.024 1.856 3.04 2.272 2.112.432 2.432.848 2.432 1.44 0 .656-.656 1.216-1.968 1.216-1.44 0-2.48-.416-3.376-1.056l-.608.864c.944.656 2.304 1.216 3.824 1.216m48.688-4.368.288-2.368h2.112l-.288 2.368ZM232.272 142h.864l.4-3.264h2.112l-.4 3.264h.864l.4-3.264h1.472v-.912h-1.36l.288-2.368h1.392v-.928h-1.28l.352-2.928h-.848l-.368 2.928h-2.112l.352-2.928h-.848l-.368 2.928h-1.472v.928h1.36l-.288 2.368h-1.392v.912h1.28Zm23.264.192c1.152 0 2.224-.448 3.088-1.216l-.592-.848c-.64.544-1.44.976-2.4.976-1.792 0-2.992-1.2-2.992-2.976 0-1.792 1.232-3.008 3.024-3.008.816 0 1.488.336 2.128.896l.656-.848c-.64-.624-1.568-1.136-2.832-1.136-2.352 0-4.336 1.488-4.336 4.096 0 2.576 1.824 4.064 4.256 4.064m9.264 0c2.048 0 3.84-1.488 3.84-4.064 0-2.608-1.792-4.096-3.84-4.096s-3.84 1.488-3.84 4.096c0 2.576 1.792 4.064 3.84 4.064m0-1.088c-1.488 0-2.48-1.2-2.48-2.976 0-1.792.992-3.008 2.48-3.008s2.48 1.216 2.48 3.008c0 1.776-.992 2.976-2.48 2.976m6.688 4.176h1.312v-2.624l-.064-1.472h.048c.688.64 1.6 1.008 2.32 1.008 1.872 0 3.536-1.552 3.536-4.192 0-2.416-1.12-3.968-3.216-3.968-.96 0-1.968.496-2.688 1.184h-.048l-.112-.992h-1.088Zm3.392-4.192c-.528 0-1.344-.256-2.08-.912v-3.872c.8-.8 1.6-1.168 2.288-1.168 1.552 0 2.192 1.152 2.192 2.864 0 1.92-1.008 3.088-2.4 3.088m10.176.912h1.312v-7.776h-4.928v1.072h3.616Zm.512-9.408c.592 0 1.056-.4 1.056-1.024 0-.608-.464-1.024-1.056-1.024s-1.056.416-1.056 1.024c0 .624.464 1.024 1.056 1.024m9.52 2.48c1.328 0 2.208.784 2.32 2.384h-4.96c.24-1.536 1.36-2.384 2.64-2.384m.192 7.12c1.248 0 2.24-.416 3.008-.928l-.48-.864c-.704.448-1.44.736-2.368.736-1.616 0-2.864-.896-3.024-2.656h6.128c.032-.208.064-.496.064-.8 0-2.192-1.312-3.648-3.552-3.648-2.08 0-3.968 1.536-3.968 4.064 0 2.592 1.856 4.096 4.192 4.096m9.056 0c.96 0 1.888-.56 2.528-1.216h.048l.112 1.024h1.088v-11.392H306.8v2.992l.064 1.44h-.048c-.672-.64-1.392-1.008-2.32-1.008-1.84 0-3.536 1.568-3.536 4.096 0 2.592 1.344 4.064 3.376 4.064m.272-1.104c-1.44 0-2.288-1.12-2.288-2.976 0-1.776 1.088-2.976 2.432-2.976.672 0 1.344.256 2.048.912v3.872c-.688.768-1.424 1.168-2.192 1.168m19.488.912h1.472l3.216-7.776h-1.264l-1.792 4.416c-.32.784-.576 1.552-.848 2.288h-.064a73 73 0 0 0-.88-2.288l-1.792-4.416h-1.328Zm10.992-6.928c1.328 0 2.208.784 2.32 2.384h-4.96c.24-1.536 1.36-2.384 2.64-2.384m.192 7.12c1.248 0 2.24-.416 3.008-.928l-.48-.864c-.704.448-1.44.736-2.368.736-1.616 0-2.864-.896-3.024-2.656h6.128c.032-.208.064-.496.064-.8 0-2.192-1.312-3.648-3.552-3.648-2.08 0-3.968 1.536-3.968 4.064 0 2.592 1.856 4.096 4.192 4.096m7.056-.192h1.312v-4.56c.928-1.616 2.032-2.224 3.2-2.224.608 0 .896.08 1.44.272l.304-1.136c-.48-.24-.96-.32-1.536-.32-1.44 0-2.656.784-3.472 2.032h-.048l-.112-1.84h-1.088Zm12.784.192c1.856 0 3.52-1.552 3.52-4.208 0-2.4-1.136-3.952-3.232-3.952-.912 0-1.904.464-2.608 1.184h-.048l.048-1.504v-3.104h-1.312V142h1.056l.112-.864h.048c.736.656 1.664 1.056 2.416 1.056m-.208-1.104c-.56 0-1.376-.256-2.112-.912v-3.872c.8-.8 1.6-1.168 2.288-1.168 1.552 0 2.192 1.152 2.192 2.864 0 1.92-1.008 3.088-2.368 3.088m9.024 1.104c1.104 0 2.208-.576 3.072-1.248h.048l.112 1.056h1.072v-4.768c0-1.936-1.024-3.2-3.152-3.2-1.36 0-2.672.608-3.456 1.12l.512.896c.72-.448 1.712-.928 2.72-.928 1.504 0 2.032.896 2.064 1.952-4.016.32-5.632 1.168-5.632 2.912 0 1.392 1.184 2.208 2.64 2.208m.352-1.056c-.896 0-1.712-.368-1.712-1.248 0-1.024 1.024-1.68 4.352-1.952v2.048c-.88.736-1.76 1.152-2.64 1.152m12.016 1.056c.976 0 1.728-.208 2.432-.464l-.288-.96a5.1 5.1 0 0 1-1.872.352c-1.504 0-1.968-.736-1.968-2.128v-3.696h3.824v-1.072h-3.824v-2.496h-1.088l-.176 2.496-2.24.08v.992h2.192v3.68c0 1.92.736 3.216 3.008 3.216m8.752-.192h1.312v-7.776h-4.928v1.072h3.616Zm.512-9.408c.592 0 1.056-.4 1.056-1.024 0-.608-.464-1.024-1.056-1.024s-1.056.416-1.056 1.024c0 .624.464 1.024 1.056 1.024m5.36 9.408h1.312v-5.632c.384-.8.736-1.2 1.28-1.2.576 0 .8.464.8 1.36V142h1.216v-5.632c.416-.8.704-1.2 1.248-1.2.576 0 .832.464.832 1.36V142h1.312v-5.568c0-1.552-.64-2.4-1.728-2.4-.896 0-1.376.512-1.824 1.344-.224-.896-.704-1.344-1.472-1.344-.896 0-1.376.496-1.776 1.216h-.032l-.112-1.024h-1.056Zm22.944 0h1.296v-6.704h3.264v-1.072h-3.264v-.704c0-1.264.576-2.032 1.968-2.032.672 0 1.168.08 1.808.368l.304-.992a5.8 5.8 0 0 0-2.24-.448c-2.144 0-3.136 1.248-3.136 3.152v.656l-2.224.08v.992h2.224Zm8.464 0h1.312v-4.56c.928-1.616 2.032-2.224 3.2-2.224.608 0 .896.08 1.44.272l.304-1.136c-.48-.24-.96-.32-1.536-.32-1.44 0-2.656.784-3.472 2.032h-.048l-.112-1.84h-1.088Zm12.464.192c2.048 0 3.84-1.488 3.84-4.064 0-2.608-1.792-4.096-3.84-4.096s-3.84 1.488-3.84 4.096c0 2.576 1.792 4.064 3.84 4.064m0-1.088c-1.488 0-2.48-1.2-2.48-2.976 0-1.792.992-3.008 2.48-3.008s2.48 1.216 2.48 3.008c0 1.776-.992 2.976-2.48 2.976m6.128.896h1.312v-5.632c.384-.8.736-1.2 1.28-1.2.576 0 .8.464.8 1.36V142h1.216v-5.632c.416-.8.704-1.2 1.248-1.2.576 0 .832.464.832 1.36V142h1.312v-5.568c0-1.552-.64-2.4-1.728-2.4-.896 0-1.376.512-1.824 1.344-.224-.896-.704-1.344-1.472-1.344-.896 0-1.376.496-1.776 1.216h-.032l-.112-1.024h-1.056Zm24.032.192c2.224 0 3.456-1.056 3.456-2.32 0-1.184-.624-1.84-3.216-2.4-1.584-.336-2.256-.624-2.256-1.296 0-.592.464-1.12 1.792-1.12.992 0 1.888.32 2.608.816l.64-.848c-.768-.528-1.952-.992-3.136-.992-2.128 0-3.232.96-3.232 2.208 0 1.168 1.024 1.856 3.04 2.272 2.112.432 2.432.848 2.432 1.44 0 .656-.656 1.216-1.968 1.216-1.44 0-2.48-.416-3.376-1.056l-.608.864c.944.656 2.304 1.216 3.824 1.216m9.84 0c2.048 0 3.84-1.488 3.84-4.064 0-2.608-1.792-4.096-3.84-4.096s-3.84 1.488-3.84 4.096c0 2.576 1.792 4.064 3.84 4.064m0-1.088c-1.488 0-2.48-1.2-2.48-2.976 0-1.792.992-3.008 2.48-3.008s2.48 1.216 2.48 3.008c0 1.776-.992 2.976-2.48 2.976m9.136 1.088c1.2 0 2.112-.64 2.896-1.552h.064l.112 1.36h1.072v-7.776h-1.312v5.392c-.864 1.008-1.52 1.44-2.416 1.44-1.296 0-1.792-.704-1.792-2.176v-4.656h-1.328v4.832c0 2.048.848 3.136 2.704 3.136m8.4-.192h1.312v-4.56c.928-1.616 2.032-2.224 3.2-2.224.608 0 .896.08 1.44.272l.304-1.136c-.48-.24-.96-.32-1.536-.32-1.44 0-2.656.784-3.472 2.032h-.048l-.112-1.84h-1.088Zm13.2.192c1.152 0 2.224-.448 3.088-1.216l-.592-.848c-.64.544-1.44.976-2.4.976-1.792 0-2.992-1.2-2.992-2.976 0-1.792 1.232-3.008 3.024-3.008.816 0 1.488.336 2.128.896l.656-.848c-.64-.624-1.568-1.136-2.832-1.136-2.352 0-4.336 1.488-4.336 4.096 0 2.576 1.824 4.064 4.256 4.064m9.552-7.12c1.328 0 2.208.784 2.32 2.384h-4.96c.24-1.536 1.36-2.384 2.64-2.384m.192 7.12c1.248 0 2.24-.416 3.008-.928l-.48-.864c-.704.448-1.44.736-2.368.736-1.616 0-2.864-.896-3.024-2.656h6.128c.032-.208.064-.496.064-.8 0-2.192-1.312-3.648-3.552-3.648-2.08 0-3.968 1.536-3.968 4.064 0 2.592 1.856 4.096 4.192 4.096M9.376 116.824h10.848v-1.248H9.376Z"/><path d="M19.376 116.824h10.848v-1.248H19.376Zm26.16 4.368c1.152 0 2.224-.448 3.088-1.216l-.592-.848c-.64.544-1.44.976-2.4.976-1.792 0-2.992-1.2-2.992-2.976 0-1.792 1.232-3.008 3.024-3.008.816 0 1.488.336 2.128.896l.656-.848c-.64-.624-1.568-1.136-2.832-1.136-2.352 0-4.336 1.488-4.336 4.096 0 2.576 1.824 4.064 4.256 4.064m9.424 0c2.224 0 3.456-1.056 3.456-2.32 0-1.184-.624-1.84-3.216-2.4-1.584-.336-2.256-.624-2.256-1.296 0-.592.464-1.12 1.792-1.12.992 0 1.888.32 2.608.816l.64-.848c-.768-.528-1.952-.992-3.136-.992-2.128 0-3.232.96-3.232 2.208 0 1.168 1.024 1.856 3.04 2.272 2.112.432 2.432.848 2.432 1.44 0 .656-.656 1.216-1.968 1.216-1.44 0-2.48-.416-3.376-1.056l-.608.864c.944.656 2.304 1.216 3.824 1.216m10 0c2.224 0 3.456-1.056 3.456-2.32 0-1.184-.624-1.84-3.216-2.4-1.584-.336-2.256-.624-2.256-1.296 0-.592.464-1.12 1.792-1.12.992 0 1.888.32 2.608.816l.64-.848c-.768-.528-1.952-.992-3.136-.992-2.128 0-3.232.96-3.232 2.208 0 1.168 1.024 1.856 3.04 2.272 2.112.432 2.432.848 2.432 1.44 0 .656-.656 1.216-1.968 1.216-1.44 0-2.48-.416-3.376-1.056l-.608.864c.944.656 2.304 1.216 3.824 1.216m6.624 2.368h1.184l5.248-13.92h-1.184Zm-21.36-27.736v-1.248h-4.8V84h-1.248v11.824Z"/><path d="M49.376 95.824h10.848v-1.248H49.376Z"/><path d="M59.376 95.824h10.848v-1.248H59.376ZM85.056 100h1.312v-7.776H81.44v1.072h3.616Zm.512-9.408c.592 0 1.056-.4 1.056-1.024 0-.608-.464-1.024-1.056-1.024s-1.056.416-1.056 1.024c0 .624.464 1.024 1.056 1.024m5.92 9.408H92.8v-5.424c.912-.944 1.536-1.408 2.464-1.408 1.28 0 1.792.704 1.792 2.176V100h1.312v-4.832c0-2.048-.848-3.136-2.688-3.136-1.216 0-2.112.656-2.928 1.52h-.064l-.112-1.328h-1.088Zm12.848.192c.96 0 1.888-.56 2.528-1.216h.048l.112 1.024h1.088V88.608H106.8V91.6l.064 1.44h-.048c-.672-.64-1.392-1.008-2.32-1.008-1.84 0-3.536 1.568-3.536 4.096 0 2.592 1.344 4.064 3.376 4.064m.272-1.104c-1.44 0-2.288-1.12-2.288-2.976 0-1.776 1.088-2.976 2.432-2.976.672 0 1.344.256 2.048.912v3.872c-.688.768-1.424 1.168-2.192 1.168m10.48-6.016c1.328 0 2.208.784 2.32 2.384h-4.96c.24-1.536 1.36-2.384 2.64-2.384m.192 7.12c1.248 0 2.24-.416 3.008-.928l-.48-.864c-.704.448-1.44.736-2.368.736-1.616 0-2.864-.896-3.024-2.656h6.128c.032-.208.064-.496.064-.8 0-2.192-1.312-3.648-3.552-3.648-2.08 0-3.968 1.536-3.968 4.064 0 2.592 1.856 4.096 4.192 4.096m5.744-.192h1.408l1.28-1.792c.32-.496.64-.944.96-1.408h.064c.336.448.704.96 1.024 1.408l1.36 1.792h1.44l-2.976-3.92 2.768-3.856h-1.392l-1.168 1.68c-.272.432-.592.912-.88 1.344h-.064a28 28 0 0 1-.912-1.312l-1.232-1.712h-1.456l2.736 3.744Zm13.776.192c.72 0 1.296-.544 1.296-1.344 0-.816-.576-1.36-1.296-1.36s-1.296.544-1.296 1.36c0 .8.576 1.344 1.296 1.344m6.688-.192h1.312v-5.424c.912-.944 1.536-1.408 2.464-1.408 1.28 0 1.792.704 1.792 2.176V100h1.312v-4.832c0-2.048-.848-3.136-2.688-3.136-1.216 0-2.112.656-2.912 1.52h-.048l.08-1.84v-3.104h-1.312Zm14.816.192c.976 0 1.728-.208 2.432-.464l-.288-.96a5.1 5.1 0 0 1-1.872.352c-1.504 0-1.968-.736-1.968-2.128v-3.696h3.824v-1.072h-3.824v-2.496h-1.088l-.176 2.496-2.24.08v.992h2.192v3.68c0 1.92.736 3.216 3.008 3.216m4.624-.192h1.312v-5.632c.384-.8.736-1.2 1.28-1.2.576 0 .8.464.8 1.36V100h1.216v-5.632c.416-.8.704-1.2 1.248-1.2.576 0 .832.464.832 1.36V100h1.312v-5.568c0-1.552-.64-2.4-1.728-2.4-.896 0-1.376.512-1.824 1.344-.224-.896-.704-1.344-1.472-1.344-.896 0-1.376.496-1.776 1.216h-.032l-.112-1.024h-1.056Zm15.584.192c.848 0 1.36-.16 2.08-.464l-.336-.976c-.528.24-1.008.352-1.456.352-.928 0-1.536-.48-1.536-1.616v-8.88h-4.08v1.072h2.768v7.712c0 1.84.912 2.8 2.56 2.8m57.136-4.368.288-2.368h2.112l-.288 2.368ZM232.272 100h.864l.4-3.264h2.112l-.4 3.264h.864l.4-3.264h1.472v-.912h-1.36l.288-2.368h1.392v-.928h-1.28l.352-2.928h-.848l-.368 2.928h-2.112l.352-2.928h-.848l-.368 2.928h-1.472v.928h1.36l-.288 2.368h-1.392v.912h1.28Zm22.688.192c2.224 0 3.456-1.056 3.456-2.32 0-1.184-.624-1.84-3.216-2.4-1.584-.336-2.256-.624-2.256-1.296 0-.592.464-1.12 1.792-1.12.992 0 1.888.32 2.608.816l.64-.848c-.768-.528-1.952-.992-3.136-.992-2.128 0-3.232.96-3.232 2.208 0 1.168 1.024 1.856 3.04 2.272 2.112.432 2.432.848 2.432 1.44 0 .656-.656 1.216-1.968 1.216-1.44 0-2.48-.416-3.376-1.056l-.608.864c.944.656 2.304 1.216 3.824 1.216m11.344 0c.976 0 1.728-.208 2.432-.464l-.288-.96a5.1 5.1 0 0 1-1.872.352c-1.504 0-1.968-.736-1.968-2.128v-3.696h3.824v-1.072h-3.824v-2.496h-1.088l-.176 2.496-2.24.08v.992h2.192v3.68c0 1.92.736 3.216 3.008 3.216m7.632 0c1.104 0 2.208-.576 3.072-1.248h.048l.112 1.056h1.072v-4.768c0-1.936-1.024-3.2-3.152-3.2-1.36 0-2.672.608-3.456 1.12l.512.896c.72-.448 1.712-.928 2.72-.928 1.504 0 2.032.896 2.064 1.952-4.016.32-5.632 1.168-5.632 2.912 0 1.392 1.184 2.208 2.64 2.208m.352-1.056c-.896 0-1.712-.368-1.712-1.248 0-1.024 1.024-1.68 4.352-1.952v2.048c-.88.736-1.76 1.152-2.64 1.152m7.2.864h1.312v-5.424c.912-.944 1.536-1.408 2.464-1.408 1.28 0 1.792.704 1.792 2.176V100h1.312v-4.832c0-2.048-.848-3.136-2.688-3.136-1.216 0-2.112.656-2.928 1.52h-.064l-.112-1.328h-1.088Zm12.848.192c.96 0 1.888-.56 2.528-1.216h.048l.112 1.024h1.088V88.608H296.8V91.6l.064 1.44h-.048c-.672-.64-1.392-1.008-2.32-1.008-1.84 0-3.536 1.568-3.536 4.096 0 2.592 1.344 4.064 3.376 4.064m.272-1.104c-1.44 0-2.288-1.12-2.288-2.976 0-1.776 1.088-2.976 2.432-2.976.672 0 1.344.256 2.048.912v3.872c-.688.768-1.424 1.168-2.192 1.168m9.328 1.104c1.104 0 2.208-.576 3.072-1.248h.048l.112 1.056h1.072v-4.768c0-1.936-1.024-3.2-3.152-3.2-1.36 0-2.672.608-3.456 1.12l.512.896c.72-.448 1.712-.928 2.72-.928 1.504 0 2.032.896 2.064 1.952-4.016.32-5.632 1.168-5.632 2.912 0 1.392 1.184 2.208 2.64 2.208m.352-1.056c-.896 0-1.712-.368-1.712-1.248 0-1.024 1.024-1.68 4.352-1.952v2.048c-.88.736-1.76 1.152-2.64 1.152m12.224 1.056c.848 0 1.36-.16 2.08-.464l-.336-.976c-.528.24-1.008.352-1.456.352-.928 0-1.536-.48-1.536-1.616v-8.88h-4.08v1.072h2.768v7.712c0 1.84.912 2.8 2.56 2.8m8.288 0c2.048 0 3.84-1.488 3.84-4.064 0-2.608-1.792-4.096-3.84-4.096s-3.84 1.488-3.84 4.096c0 2.576 1.792 4.064 3.84 4.064m0-1.088c-1.488 0-2.48-1.2-2.48-2.976 0-1.792.992-3.008 2.48-3.008s2.48 1.216 2.48 3.008c0 1.776-.992 2.976-2.48 2.976m6.688.896h1.312v-5.424c.912-.944 1.536-1.408 2.464-1.408 1.28 0 1.792.704 1.792 2.176V100h1.312v-4.832c0-2.048-.848-3.136-2.688-3.136-1.216 0-2.112.656-2.928 1.52h-.064l-.112-1.328h-1.088Zm13.6-6.928c1.328 0 2.208.784 2.32 2.384h-4.96c.24-1.536 1.36-2.384 2.64-2.384m.192 7.12c1.248 0 2.24-.416 3.008-.928l-.48-.864c-.704.448-1.44.736-2.368.736-1.616 0-2.864-.896-3.024-2.656h6.128c.032-.208.064-.496.064-.8 0-2.192-1.312-3.648-3.552-3.648-2.08 0-3.968 1.536-3.968 4.064 0 2.592 1.856 4.096 4.192 4.096m16.208 3.088h1.312v-2.624l-.064-1.472h.048c.688.64 1.6 1.008 2.32 1.008 1.872 0 3.536-1.552 3.536-4.192 0-2.416-1.12-3.968-3.216-3.968-.96 0-1.968.496-2.688 1.184h-.048l-.112-.992h-1.088Zm3.392-4.192c-.528 0-1.344-.256-2.08-.912v-3.872c.8-.8 1.6-1.168 2.288-1.168 1.552 0 2.192 1.152 2.192 2.864 0 1.92-1.008 3.088-2.4 3.088m9.056 1.104c1.104 0 2.208-.576 3.072-1.248h.048l.112 1.056h1.072v-4.768c0-1.936-1.024-3.2-3.152-3.2-1.36 0-2.672.608-3.456 1.12l.512.896c.72-.448 1.712-.928 2.72-.928 1.504 0 2.032.896 2.064 1.952-4.016.32-5.632 1.168-5.632 2.912 0 1.392 1.184 2.208 2.64 2.208m.352-1.056c-.896 0-1.712-.368-1.712-1.248 0-1.024 1.024-1.68 4.352-1.952v2.048c-.88.736-1.76 1.152-2.64 1.152m10.448 4.448c2.64 0 4.32-1.264 4.32-2.72 0-1.312-.96-1.824-2.96-1.824h-1.744c-1.024 0-1.616-.288-1.616-.896 0-.368.224-.656.608-.896.432.192.912.288 1.312.288 1.68 0 3.008-1.008 3.008-2.672 0-.624-.304-1.2-.656-1.568h2.016v-1.072h-3.216a3.2 3.2 0 0 0-1.152-.192c-1.648 0-3.056 1.088-3.056 2.784 0 .928.432 1.616.96 2.016v.064c-.592.4-.928.96-.928 1.456 0 .656.384 1.056.8 1.28v.064c-.832.48-1.28 1.104-1.28 1.728 0 1.376 1.312 2.16 3.584 2.16m-.08-6.928c-.976 0-1.792-.72-1.792-1.84 0-1.088.816-1.824 1.792-1.824.992 0 1.792.736 1.792 1.824 0 1.12-.8 1.84-1.792 1.84m.176 5.968c-1.664 0-2.544-.512-2.544-1.328 0-.448.256-.896.992-1.296.336.096.736.128 1.184.128h1.52c1.184 0 1.776.208 1.776.944 0 .8-1.12 1.552-2.928 1.552m10.256-9.552c1.328 0 2.208.784 2.32 2.384h-4.96c.24-1.536 1.36-2.384 2.64-2.384m.192 7.12c1.248 0 2.24-.416 3.008-.928l-.48-.864c-.704.448-1.44.736-2.368.736-1.616 0-2.864-.896-3.024-2.656h6.128c.032-.208.064-.496.064-.8 0-2.192-1.312-3.648-3.552-3.648-2.08 0-3.968 1.536-3.968 4.064 0 2.592 1.856 4.096 4.192 4.096m21.648 2.624.72-.672c-2.144-1.808-3.136-3.904-3.136-6.592s.992-4.784 3.136-6.592l-.72-.672c-2.224 1.728-3.6 4.176-3.6 7.264s1.376 5.536 3.6 7.264m8.128-2.816h1.312v-7.776h-4.928v1.072h3.616Zm.512-9.408c.592 0 1.056-.4 1.056-1.024 0-.608-.464-1.024-1.056-1.024s-1.056.416-1.056 1.024c0 .624.464 1.024 1.056 1.024m8.304 9.408h1.296v-6.704h3.264v-1.072h-3.264v-.704c0-1.264.576-2.032 1.968-2.032.672 0 1.168.08 1.808.368l.304-.992a5.8 5.8 0 0 0-2.24-.448c-2.144 0-3.136 1.248-3.136 3.152v.656l-2.224.08v.992h2.224Zm21.264-9.088.688-.656-2.272-2.688-.928.896Zm10.4 9.28c1.152 0 2.224-.448 3.088-1.216l-.592-.848c-.64.544-1.44.976-2.4.976-1.792 0-2.992-1.2-2.992-2.976 0-1.792 1.232-3.008 3.024-3.008.816 0 1.488.336 2.128.896l.656-.848c-.64-.624-1.568-1.136-2.832-1.136-2.352 0-4.336 1.488-4.336 4.096 0 2.576 1.824 4.064 4.256 4.064m9.264 0c2.048 0 3.84-1.488 3.84-4.064 0-2.608-1.792-4.096-3.84-4.096s-3.84 1.488-3.84 4.096c0 2.576 1.792 4.064 3.84 4.064m0-1.088c-1.488 0-2.48-1.2-2.48-2.976 0-1.792.992-3.008 2.48-3.008s2.48 1.216 2.48 3.008c0 1.776-.992 2.976-2.48 2.976m6.688.896h1.312v-5.424c.912-.944 1.536-1.408 2.464-1.408 1.28 0 1.792.704 1.792 2.176V100h1.312v-4.832c0-2.048-.848-3.136-2.688-3.136-1.216 0-2.112.656-2.928 1.52h-.064l-.112-1.328h-1.088Zm14.816.192c.976 0 1.728-.208 2.432-.464l-.288-.96a5.1 5.1 0 0 1-1.872.352c-1.504 0-1.968-.736-1.968-2.128v-3.696h3.824v-1.072h-3.824v-2.496h-1.088l-.176 2.496-2.24.08v.992h2.192v3.68c0 1.92.736 3.216 3.008 3.216m7.632 0c1.104 0 2.208-.576 3.072-1.248h.048l.112 1.056h1.072v-4.768c0-1.936-1.024-3.2-3.152-3.2-1.36 0-2.672.608-3.456 1.12l.512.896c.72-.448 1.712-.928 2.72-.928 1.504 0 2.032.896 2.064 1.952-4.016.32-5.632 1.168-5.632 2.912 0 1.392 1.184 2.208 2.64 2.208m.352-1.056c-.896 0-1.712-.368-1.712-1.248 0-1.024 1.024-1.68 4.352-1.952v2.048c-.88.736-1.76 1.152-2.64 1.152m11.248 1.056c1.152 0 2.224-.448 3.088-1.216l-.592-.848c-.64.544-1.44.976-2.4.976-1.792 0-2.992-1.2-2.992-2.976 0-1.792 1.232-3.008 3.024-3.008.816 0 1.488.336 2.128.896l.656-.848c-.64-.624-1.568-1.136-2.832-1.136-2.352 0-4.336 1.488-4.336 4.096 0 2.576 1.824 4.064 4.256 4.064m10.768 0c.976 0 1.728-.208 2.432-.464l-.288-.96a5.1 5.1 0 0 1-1.872.352c-1.504 0-1.968-.736-1.968-2.128v-3.696h3.824v-1.072h-3.824v-2.496h-1.088l-.176 2.496-2.24.08v.992h2.192v3.68c0 1.92.736 3.216 3.008 3.216m8.496 0c.72 0 1.296-.544 1.296-1.344 0-.816-.576-1.36-1.296-1.36s-1.296.544-1.296 1.36c0 .8.576 1.344 1.296 1.344m6.128-.192h1.312v-5.632c.384-.8.736-1.2 1.28-1.2.576 0 .8.464.8 1.36V100h1.216v-5.632c.416-.8.704-1.2 1.248-1.2.576 0 .832.464.832 1.36V100h1.312v-5.568c0-1.552-.64-2.4-1.728-2.4-.896 0-1.376.512-1.824 1.344-.224-.896-.704-1.344-1.472-1.344-.896 0-1.376.496-1.776 1.216h-.032l-.112-1.024h-1.056Zm13.408.192c.96 0 1.888-.56 2.528-1.216h.048l.112 1.024h1.088V88.608H556.8V91.6l.064 1.44h-.048c-.672-.64-1.392-1.008-2.32-1.008-1.84 0-3.536 1.568-3.536 4.096 0 2.592 1.344 4.064 3.376 4.064m.272-1.104c-1.44 0-2.288-1.12-2.288-2.976 0-1.776 1.088-2.976 2.432-2.976.672 0 1.344.256 2.048.912v3.872c-.688.768-1.424 1.168-2.192 1.168m10.528-8.176.688-.656-2.272-2.688-.928.896Zm19.92 9.088h1.312v-7.776h-4.928v1.072h3.616Zm.512-9.408c.592 0 1.056-.4 1.056-1.024 0-.608-.464-1.024-1.056-1.024s-1.056.416-1.056 1.024c0 .624.464 1.024 1.056 1.024m5.92 9.408h1.312v-5.424c.912-.944 1.536-1.408 2.464-1.408 1.28 0 1.792.704 1.792 2.176V100h1.312v-4.832c0-2.048-.848-3.136-2.688-3.136-1.216 0-2.112.656-2.928 1.52h-.064l-.112-1.328h-1.088Zm20 3.28h1.312v-2.624l-.064-1.472h.048c.688.64 1.6 1.008 2.32 1.008 1.872 0 3.536-1.552 3.536-4.192 0-2.416-1.12-3.968-3.216-3.968-.96 0-1.968.496-2.688 1.184h-.048l-.112-.992h-1.088Zm3.392-4.192c-.528 0-1.344-.256-2.08-.912v-3.872c.8-.8 1.6-1.168 2.288-1.168 1.552 0 2.192 1.152 2.192 2.864 0 1.92-1.008 3.088-2.4 3.088m9.056 1.104c1.104 0 2.208-.576 3.072-1.248h.048l.112 1.056h1.072v-4.768c0-1.936-1.024-3.2-3.152-3.2-1.36 0-2.672.608-3.456 1.12l.512.896c.72-.448 1.712-.928 2.72-.928 1.504 0 2.032.896 2.064 1.952-4.016.32-5.632 1.168-5.632 2.912 0 1.392 1.184 2.208 2.64 2.208m.352-1.056c-.896 0-1.712-.368-1.712-1.248 0-1.024 1.024-1.68 4.352-1.952v2.048c-.88.736-1.76 1.152-2.64 1.152m10.448 4.448c2.64 0 4.32-1.264 4.32-2.72 0-1.312-.96-1.824-2.96-1.824h-1.744c-1.024 0-1.616-.288-1.616-.896 0-.368.224-.656.608-.896.432.192.912.288 1.312.288 1.68 0 3.008-1.008 3.008-2.672 0-.624-.304-1.2-.656-1.568h2.016v-1.072h-3.216a3.2 3.2 0 0 0-1.152-.192c-1.648 0-3.056 1.088-3.056 2.784 0 .928.432 1.616.96 2.016v.064c-.592.4-.928.96-.928 1.456 0 .656.384 1.056.8 1.28v.064c-.832.48-1.28 1.104-1.28 1.728 0 1.376 1.312 2.16 3.584 2.16m-.08-6.928c-.976 0-1.792-.72-1.792-1.84 0-1.088.816-1.824 1.792-1.824.992 0 1.792.736 1.792 1.824 0 1.12-.8 1.84-1.792 1.84m.176 5.968c-1.664 0-2.544-.512-2.544-1.328 0-.448.256-.896.992-1.296.336.096.736.128 1.184.128h1.52c1.184 0 1.776.208 1.776.944 0 .8-1.12 1.552-2.928 1.552m10.256-9.552c1.328 0 2.208.784 2.32 2.384h-4.96c.24-1.536 1.36-2.384 2.64-2.384m.192 7.12c1.248 0 2.24-.416 3.008-.928l-.48-.864c-.704.448-1.44.736-2.368.736-1.616 0-2.864-.896-3.024-2.656h6.128c.032-.208.064-.496.064-.8 0-2.192-1.312-3.648-3.552-3.648-2.08 0-3.968 1.536-3.968 4.064 0 2.592 1.856 4.096 4.192 4.096m6.352-.192h1.328v-4.16h1.84c2.304 0 3.888-1.04 3.888-3.248 0-2.304-1.568-3.088-3.888-3.088h-3.168Zm1.328-5.248v-4.176h1.68c1.808 0 2.704.496 2.704 2.016 0 1.488-.864 2.16-2.704 2.16Zm10.976 5.44c1.104 0 2.208-.576 3.072-1.248h.048l.112 1.056h1.072v-4.768c0-1.936-1.024-3.2-3.152-3.2-1.36 0-2.672.608-3.456 1.12l.512.896c.72-.448 1.712-.928 2.72-.928 1.504 0 2.032.896 2.064 1.952-4.016.32-5.632 1.168-5.632 2.912 0 1.392 1.184 2.208 2.64 2.208m.352-1.056c-.896 0-1.712-.368-1.712-1.248 0-1.024 1.024-1.68 4.352-1.952v2.048c-.88.736-1.76 1.152-2.64 1.152m12.016 1.056c.976 0 1.728-.208 2.432-.464l-.288-.96a5.1 5.1 0 0 1-1.872.352c-1.504 0-1.968-.736-1.968-2.128v-3.696h3.824v-1.072h-3.824v-2.496h-1.088l-.176 2.496-2.24.08v.992h2.192v3.68c0 1.92.736 3.216 3.008 3.216m5.184-.192h1.312v-5.424c.912-.944 1.536-1.408 2.464-1.408 1.28 0 1.792.704 1.792 2.176V100h1.312v-4.832c0-2.048-.848-3.136-2.688-3.136-1.216 0-2.112.656-2.912 1.52h-.048l.08-1.84v-3.104h-1.312Zm13.472.192c2.224 0 3.456-1.056 3.456-2.32 0-1.184-.624-1.84-3.216-2.4-1.584-.336-2.256-.624-2.256-1.296 0-.592.464-1.12 1.792-1.12.992 0 1.888.32 2.608.816l.64-.848c-.768-.528-1.952-.992-3.136-.992-2.128 0-3.232.96-3.232 2.208 0 1.168 1.024 1.856 3.04 2.272 2.112.432 2.432.848 2.432 1.44 0 .656-.656 1.216-1.968 1.216-1.44 0-2.48-.416-3.376-1.056l-.608.864c.944.656 2.304 1.216 3.824 1.216m7.712 2.624c2.224-1.728 3.6-4.176 3.6-7.264s-1.376-5.536-3.6-7.264l-.72.672c2.144 1.808 3.136 3.904 3.136 6.592s-.992 4.784-3.136 6.592ZM9.376 32.824h10.848v-1.248H9.376Zm0 21h10.848v-1.248H9.376Zm0 21h10.848v-1.248H9.376Z"/><path d="M19.376 32.824h10.848v-1.248H19.376Zm0 21h10.848v-1.248H19.376Zm0 21h10.848v-1.248H19.376ZM45.056 37h1.312v-7.776H41.44v1.072h3.616Zm.512-9.408c.592 0 1.056-.4 1.056-1.024 0-.608-.464-1.024-1.056-1.024s-1.056.416-1.056 1.024c0 .624.464 1.024 1.056 1.024M43.872 58h1.296v-6.704h3.264v-1.072h-3.264v-.704c0-1.264.576-2.032 1.968-2.032.672 0 1.168.08 1.808.368l.304-.992a5.8 5.8 0 0 0-2.24-.448c-2.144 0-3.136 1.248-3.136 3.152v.656l-2.224.08v.992h2.224Zm1.664 21.192c1.152 0 2.224-.448 3.088-1.216l-.592-.848c-.64.544-1.44.976-2.4.976-1.792 0-2.992-1.2-2.992-2.976 0-1.792 1.232-3.008 3.024-3.008.816 0 1.488.336 2.128.896l.656-.848c-.64-.624-1.568-1.136-2.832-1.136-2.352 0-4.336 1.488-4.336 4.096 0 2.576 1.824 4.064 4.256 4.064m9.264 0c2.048 0 3.84-1.488 3.84-4.064 0-2.608-1.792-4.096-3.84-4.096s-3.84 1.488-3.84 4.096c0 2.576 1.792 4.064 3.84 4.064m0-1.088c-1.488 0-2.48-1.2-2.48-2.976 0-1.792.992-3.008 2.48-3.008s2.48 1.216 2.48 3.008c0 1.776-.992 2.976-2.48 2.976m6.688.896H62.8v-5.424c.912-.944 1.536-1.408 2.464-1.408 1.28 0 1.792.704 1.792 2.176V79h1.312v-4.832c0-2.048-.848-3.136-2.688-3.136-1.216 0-2.112.656-2.928 1.52h-.064l-.112-1.328h-1.088Zm14.816.192c.976 0 1.728-.208 2.432-.464l-.288-.96a5.1 5.1 0 0 1-1.872.352c-1.504 0-1.968-.736-1.968-2.128v-3.696h3.824v-1.072h-3.824v-2.496H73.52l-.176 2.496-2.24.08v.992h2.192v3.68c0 1.92.736 3.216 3.008 3.216m7.632 0c1.104 0 2.208-.576 3.072-1.248h.048L87.168 79h1.072v-4.768c0-1.936-1.024-3.2-3.152-3.2-1.36 0-2.672.608-3.456 1.12l.512.896c.72-.448 1.712-.928 2.72-.928 1.504 0 2.032.896 2.064 1.952-4.016.32-5.632 1.168-5.632 2.912 0 1.392 1.184 2.208 2.64 2.208m.352-1.056c-.896 0-1.712-.368-1.712-1.248 0-1.024 1.024-1.68 4.352-1.952v2.048c-.88.736-1.76 1.152-2.64 1.152m11.248 1.056c1.152 0 2.224-.448 3.088-1.216l-.592-.848c-.64.544-1.44.976-2.4.976-1.792 0-2.992-1.2-2.992-2.976 0-1.792 1.232-3.008 3.024-3.008.816 0 1.488.336 2.128.896l.656-.848c-.64-.624-1.568-1.136-2.832-1.136-2.352 0-4.336 1.488-4.336 4.096 0 2.576 1.824 4.064 4.256 4.064m10.768 0c.976 0 1.728-.208 2.432-.464l-.288-.96a5.1 5.1 0 0 1-1.872.352c-1.504 0-1.968-.736-1.968-2.128v-3.696h3.824v-1.072h-3.824v-2.496h-1.088l-.176 2.496-2.24.08v.992h2.192v3.68c0 1.92.736 3.216 3.008 3.216m5.28 2.368h1.184l5.248-13.92h-1.184ZM55.088 51.072c1.328 0 2.208.784 2.32 2.384h-4.96c.24-1.536 1.36-2.384 2.64-2.384m.192 7.12c1.248 0 2.24-.416 3.008-.928l-.48-.864c-.704.448-1.44.736-2.368.736-1.616 0-2.864-.896-3.024-2.656h6.128c.032-.208.064-.496.064-.8 0-2.192-1.312-3.648-3.552-3.648-2.08 0-3.968 1.536-3.968 4.064 0 2.592 1.856 4.096 4.192 4.096m9.808-7.12c1.328 0 2.208.784 2.32 2.384h-4.96c.24-1.536 1.36-2.384 2.64-2.384m.192 7.12c1.248 0 2.24-.416 3.008-.928l-.48-.864c-.704.448-1.44.736-2.368.736-1.616 0-2.864-.896-3.024-2.656h6.128c.032-.208.064-.496.064-.8 0-2.192-1.312-3.648-3.552-3.648-2.08 0-3.968 1.536-3.968 4.064 0 2.592 1.856 4.096 4.192 4.096m9.056 0c.96 0 1.888-.56 2.528-1.216h.048L77.024 58h1.088V46.608H76.8V49.6l.064 1.44h-.048c-.672-.64-1.392-1.008-2.32-1.008-1.84 0-3.536 1.568-3.536 4.096 0 2.592 1.344 4.064 3.376 4.064m.272-1.104c-1.44 0-2.288-1.12-2.288-2.976 0-1.776 1.088-2.976 2.432-2.976.672 0 1.344.256 2.048.912v3.872c-.688.768-1.424 1.168-2.192 1.168M84.8 58.192c.72 0 1.296-.544 1.296-1.344 0-.816-.576-1.36-1.296-1.36s-1.296.544-1.296 1.36c0 .8.576 1.344 1.296 1.344m9.136 0c1.104 0 2.208-.576 3.072-1.248h.048L97.168 58h1.072v-4.768c0-1.936-1.024-3.2-3.152-3.2-1.36 0-2.672.608-3.456 1.12l.512.896c.72-.448 1.712-.928 2.72-.928 1.504 0 2.032.896 2.064 1.952-4.016.32-5.632 1.168-5.632 2.912 0 1.392 1.184 2.208 2.64 2.208m.352-1.056c-.896 0-1.712-.368-1.712-1.248 0-1.024 1.024-1.68 4.352-1.952v2.048c-.88.736-1.76 1.152-2.64 1.152m12.016 1.056c.976 0 1.728-.208 2.432-.464l-.288-.96a5.1 5.1 0 0 1-1.872.352c-1.504 0-1.968-.736-1.968-2.128v-3.696h3.824v-1.072h-3.824v-2.496h-1.088l-.176 2.496-2.24.08v.992h2.192v3.68c0 1.92.736 3.216 3.008 3.216m8.496 0c2.048 0 3.84-1.488 3.84-4.064 0-2.608-1.792-4.096-3.84-4.096s-3.84 1.488-3.84 4.096c0 2.576 1.792 4.064 3.84 4.064m0-1.088c-1.488 0-2.48-1.2-2.48-2.976 0-1.792.992-3.008 2.48-3.008s2.48 1.216 2.48 3.008c0 1.776-.992 2.976-2.48 2.976m6.128.896h1.312v-5.632c.384-.8.736-1.2 1.28-1.2.576 0 .8.464.8 1.36V58h1.216v-5.632c.416-.8.704-1.2 1.248-1.2.576 0 .832.464.832 1.36V58h1.312v-5.568c0-1.552-.64-2.4-1.728-2.4-.896 0-1.376.512-1.824 1.344-.224-.896-.704-1.344-1.472-1.344-.896 0-1.376.496-1.776 1.216h-.032l-.112-1.024h-1.056Zm112.72-4.176.288-2.368h2.112l-.288 2.368ZM232.272 58h.864l.4-3.264h2.112l-.4 3.264h.864l.4-3.264h1.472v-.912h-1.36l.288-2.368h1.392v-.928h-1.28l.352-2.928h-.848l-.368 2.928h-2.112l.352-2.928h-.848l-.368 2.928h-1.472v.928h1.36l-.288 2.368h-1.392v.912h1.28Zm21.44-5.872c.368-1.168.704-2.32 1.04-3.536h.064c.32 1.216.672 2.368 1.04 3.536l.496 1.6h-3.136Zm-3.2 5.872h1.36l1.008-3.2h3.808l.992 3.2h1.408l-3.536-10.496h-1.504Zm15.792.192c.976 0 1.728-.208 2.432-.464l-.288-.96a5.1 5.1 0 0 1-1.872.352c-1.504 0-1.968-.736-1.968-2.128v-3.696h3.824v-1.072h-3.824v-2.496h-1.088l-.176 2.496-2.24.08v.992h2.192v3.68c0 1.92.736 3.216 3.008 3.216m8.496 0c2.048 0 3.84-1.488 3.84-4.064 0-2.608-1.792-4.096-3.84-4.096s-3.84 1.488-3.84 4.096c0 2.576 1.792 4.064 3.84 4.064m0-1.088c-1.488 0-2.48-1.2-2.48-2.976 0-1.792.992-3.008 2.48-3.008s2.48 1.216 2.48 3.008c0 1.776-.992 2.976-2.48 2.976m6.128.896h1.312v-5.632c.384-.8.736-1.2 1.28-1.2.576 0 .8.464.8 1.36V58h1.216v-5.632c.416-.8.704-1.2 1.248-1.2.576 0 .832.464.832 1.36V58h1.312v-5.568c0-1.552-.64-2.4-1.728-2.4-.896 0-1.376.512-1.824 1.344-.224-.896-.704-1.344-1.472-1.344-.896 0-1.376.496-1.776 1.216h-.032l-.112-1.024h-1.056Zm22.944 0h1.296v-6.704h3.264v-1.072h-3.264v-.704c0-1.264.576-2.032 1.968-2.032.672 0 1.168.08 1.808.368l.304-.992a5.8 5.8 0 0 0-2.24-.448c-2.144 0-3.136 1.248-3.136 3.152v.656l-2.224.08v.992h2.224Zm11.216-6.928c1.328 0 2.208.784 2.32 2.384h-4.96c.24-1.536 1.36-2.384 2.64-2.384m.192 7.12c1.248 0 2.24-.416 3.008-.928l-.48-.864c-.704.448-1.44.736-2.368.736-1.616 0-2.864-.896-3.024-2.656h6.128c.032-.208.064-.496.064-.8 0-2.192-1.312-3.648-3.552-3.648-2.08 0-3.968 1.536-3.968 4.064 0 2.592 1.856 4.096 4.192 4.096m9.808-7.12c1.328 0 2.208.784 2.32 2.384h-4.96c.24-1.536 1.36-2.384 2.64-2.384m.192 7.12c1.248 0 2.24-.416 3.008-.928l-.48-.864c-.704.448-1.44.736-2.368.736-1.616 0-2.864-.896-3.024-2.656h6.128c.032-.208.064-.496.064-.8 0-2.192-1.312-3.648-3.552-3.648-2.08 0-3.968 1.536-3.968 4.064 0 2.592 1.856 4.096 4.192 4.096m9.056 0c.96 0 1.888-.56 2.528-1.216h.048l.112 1.024h1.088V46.608H336.8V49.6l.064 1.44h-.048c-.672-.64-1.392-1.008-2.32-1.008-1.84 0-3.536 1.568-3.536 4.096 0 2.592 1.344 4.064 3.376 4.064m.272-1.104c-1.44 0-2.288-1.12-2.288-2.976 0-1.776 1.088-2.976 2.432-2.976.672 0 1.344.256 2.048.912v3.872c-.688.768-1.424 1.168-2.192 1.168M51.488 37H52.8v-5.424c.912-.944 1.536-1.408 2.464-1.408 1.28 0 1.792.704 1.792 2.176V37h1.312v-4.832c0-2.048-.848-3.136-2.688-3.136-1.216 0-2.112.656-2.928 1.52h-.064l-.112-1.328h-1.088Zm12.848.192c.96 0 1.888-.56 2.528-1.216h.048L67.024 37h1.088V25.608H66.8V28.6l.064 1.44h-.048c-.672-.64-1.392-1.008-2.32-1.008-1.84 0-3.536 1.568-3.536 4.096 0 2.592 1.344 4.064 3.376 4.064m.272-1.104c-1.44 0-2.288-1.12-2.288-2.976 0-1.776 1.088-2.976 2.432-2.976.672 0 1.344.256 2.048.912v3.872c-.688.768-1.424 1.168-2.192 1.168m10.48-6.016c1.328 0 2.208.784 2.32 2.384h-4.96c.24-1.536 1.36-2.384 2.64-2.384m.192 7.12c1.248 0 2.24-.416 3.008-.928l-.48-.864c-.704.448-1.44.736-2.368.736-1.616 0-2.864-.896-3.024-2.656h6.128c.032-.208.064-.496.064-.8 0-2.192-1.312-3.648-3.552-3.648-2.08 0-3.968 1.536-3.968 4.064 0 2.592 1.856 4.096 4.192 4.096M81.024 37h1.408l1.28-1.792c.32-.496.64-.944.96-1.408h.064c.336.448.704.96 1.024 1.408L87.12 37h1.44l-2.976-3.92 2.768-3.856H86.96l-1.168 1.68c-.272.432-.592.912-.88 1.344h-.064a28 28 0 0 1-.912-1.312l-1.232-1.712h-1.456l2.736 3.744Zm13.776.192c.72 0 1.296-.544 1.296-1.344 0-.816-.576-1.36-1.296-1.36s-1.296.544-1.296 1.36c0 .8.576 1.344 1.296 1.344m6.688-.192h1.312v-5.424c.912-.944 1.536-1.408 2.464-1.408 1.28 0 1.792.704 1.792 2.176V37h1.312v-4.832c0-2.048-.848-3.136-2.688-3.136-1.216 0-2.112.656-2.912 1.52h-.048l.08-1.84v-3.104h-1.312Zm14.816.192c.976 0 1.728-.208 2.432-.464l-.288-.96a5.1 5.1 0 0 1-1.872.352c-1.504 0-1.968-.736-1.968-2.128v-3.696h3.824v-1.072h-3.824v-2.496h-1.088l-.176 2.496-2.24.08v.992h2.192v3.68c0 1.92.736 3.216 3.008 3.216m4.624-.192h1.312v-5.632c.384-.8.736-1.2 1.28-1.2.576 0 .8.464.8 1.36V37h1.216v-5.632c.416-.8.704-1.2 1.248-1.2.576 0 .832.464.832 1.36V37h1.312v-5.568c0-1.552-.64-2.4-1.728-2.4-.896 0-1.376.512-1.824 1.344-.224-.896-.704-1.344-1.472-1.344-.896 0-1.376.496-1.776 1.216h-.032l-.112-1.024h-1.056Zm15.584.192c.848 0 1.36-.16 2.08-.464l-.336-.976c-.528.24-1.008.352-1.456.352-.928 0-1.536-.48-1.536-1.616v-8.88h-4.08v1.072h2.768v7.712c0 1.84.912 2.8 2.56 2.8m97.136-4.368.288-2.368h2.112l-.288 2.368ZM232.272 37h.864l.4-3.264h2.112l-.4 3.264h.864l.4-3.264h1.472v-.912h-1.36l.288-2.368h1.392v-.928h-1.28l.352-2.928h-.848l-.368 2.928h-2.112l.352-2.928h-.848l-.368 2.928h-1.472v.928h1.36l-.288 2.368h-1.392v.912h1.28Zm19.216 0h1.312v-5.424c.912-.944 1.536-1.408 2.464-1.408 1.28 0 1.792.704 1.792 2.176V37h1.312v-4.832c0-2.048-.848-3.136-2.688-3.136-1.216 0-2.112.656-2.912 1.52h-.048l.08-1.84v-3.104h-1.312Zm13.312.192c2.048 0 3.84-1.488 3.84-4.064 0-2.608-1.792-4.096-3.84-4.096s-3.84 1.488-3.84 4.096c0 2.576 1.792 4.064 3.84 4.064m0-1.088c-1.488 0-2.48-1.2-2.48-2.976 0-1.792.992-3.008 2.48-3.008s2.48 1.216 2.48 3.008c0 1.776-.992 2.976-2.48 2.976m6.128.896h1.312v-5.632c.384-.8.736-1.2 1.28-1.2.576 0 .8.464.8 1.36V37h1.216v-5.632c.416-.8.704-1.2 1.248-1.2.576 0 .832.464.832 1.36V37h1.312v-5.568c0-1.552-.64-2.4-1.728-2.4-.896 0-1.376.512-1.824 1.344-.224-.896-.704-1.344-1.472-1.344-.896 0-1.376.496-1.776 1.216h-.032l-.112-1.024h-1.056Zm14.16-6.928c1.328 0 2.208.784 2.32 2.384h-4.96c.24-1.536 1.36-2.384 2.64-2.384m.192 7.12c1.248 0 2.24-.416 3.008-.928l-.48-.864c-.704.448-1.44.736-2.368.736-1.616 0-2.864-.896-3.024-2.656h6.128c.032-.208.064-.496.064-.8 0-2.192-1.312-3.648-3.552-3.648-2.08 0-3.968 1.536-3.968 4.064 0 2.592 1.856 4.096 4.192 4.096m6.208 3.088h1.312v-2.624l-.064-1.472h.048c.688.64 1.6 1.008 2.32 1.008 1.872 0 3.536-1.552 3.536-4.192 0-2.416-1.12-3.968-3.216-3.968-.96 0-1.968.496-2.688 1.184h-.048l-.112-.992h-1.088Zm3.392-4.192c-.528 0-1.344-.256-2.08-.912v-3.872c.8-.8 1.6-1.168 2.288-1.168 1.552 0 2.192 1.152 2.192 2.864 0 1.92-1.008 3.088-2.4 3.088m9.056 1.104c1.104 0 2.208-.576 3.072-1.248h.048l.112 1.056h1.072v-4.768c0-1.936-1.024-3.2-3.152-3.2-1.36 0-2.672.608-3.456 1.12l.512.896c.72-.448 1.712-.928 2.72-.928 1.504 0 2.032.896 2.064 1.952-4.016.32-5.632 1.168-5.632 2.912 0 1.392 1.184 2.208 2.64 2.208m.352-1.056c-.896 0-1.712-.368-1.712-1.248 0-1.024 1.024-1.68 4.352-1.952v2.048c-.88.736-1.76 1.152-2.64 1.152m10.448 4.448c2.64 0 4.32-1.264 4.32-2.72 0-1.312-.96-1.824-2.96-1.824h-1.744c-1.024 0-1.616-.288-1.616-.896 0-.368.224-.656.608-.896.432.192.912.288 1.312.288 1.68 0 3.008-1.008 3.008-2.672 0-.624-.304-1.2-.656-1.568h2.016v-1.072h-3.216a3.2 3.2 0 0 0-1.152-.192c-1.648 0-3.056 1.088-3.056 2.784 0 .928.432 1.616.96 2.016v.064c-.592.4-.928.96-.928 1.456 0 .656.384 1.056.8 1.28v.064c-.832.48-1.28 1.104-1.28 1.728 0 1.376 1.312 2.16 3.584 2.16m-.08-6.928c-.976 0-1.792-.72-1.792-1.84 0-1.088.816-1.824 1.792-1.824.992 0 1.792.736 1.792 1.824 0 1.12-.8 1.84-1.792 1.84m.176 5.968c-1.664 0-2.544-.512-2.544-1.328 0-.448.256-.896.992-1.296.336.096.736.128 1.184.128h1.52c1.184 0 1.776.208 1.776.944 0 .8-1.12 1.552-2.928 1.552m10.256-9.552c1.328 0 2.208.784 2.32 2.384h-4.96c.24-1.536 1.36-2.384 2.64-2.384m.192 7.12c1.248 0 2.24-.416 3.008-.928l-.48-.864c-.704.448-1.44.736-2.368.736-1.616 0-2.864-.896-3.024-2.656h6.128c.032-.208.064-.496.064-.8 0-2.192-1.312-3.648-3.552-3.648-2.08 0-3.968 1.536-3.968 4.064 0 2.592 1.856 4.096 4.192 4.096m-310.32-21c2.224 0 3.456-1.056 3.456-2.32 0-1.184-.624-1.84-3.216-2.4-1.584-.336-2.256-.624-2.256-1.296 0-.592.464-1.12 1.792-1.12.992 0 1.888.32 2.608.816l.64-.848c-.768-.528-1.952-.992-3.136-.992-2.128 0-3.232.96-3.232 2.208 0 1.168 1.024 1.856 3.04 2.272 2.112.432 2.432.848 2.432 1.44 0 .656-.656 1.216-1.968 1.216-1.44 0-2.48-.416-3.376-1.056l-.608.864c.944.656 2.304 1.216 3.824 1.216M25.056 16h1.312V8.224H21.44v1.072h3.616Zm.512-9.408c.592 0 1.056-.4 1.056-1.024 0-.608-.464-1.024-1.056-1.024s-1.056.416-1.056 1.024c0 .624.464 1.024 1.056 1.024m10.736 9.6c.976 0 1.728-.208 2.432-.464l-.288-.96a5.1 5.1 0 0 1-1.872.352c-1.504 0-1.968-.736-1.968-2.128V9.296h3.824V8.224h-3.824V5.728H33.52l-.176 2.496-2.24.08v.992h2.192v3.68c0 1.92.736 3.216 3.008 3.216m8.784-7.12c1.328 0 2.208.784 2.32 2.384h-4.96c.24-1.536 1.36-2.384 2.64-2.384m.192 7.12c1.248 0 2.24-.416 3.008-.928l-.48-.864c-.704.448-1.44.736-2.368.736-1.616 0-2.864-.896-3.024-2.656h6.128c.032-.208.064-.496.064-.8 0-2.192-1.312-3.648-3.552-3.648-2.08 0-3.968 1.536-3.968 4.064 0 2.592 1.856 4.096 4.192 4.096m6.304 2.368h1.184l5.248-13.92h-1.184Z"/></svg>